<svg xmlns="http://www.w3.org/2000/svg" xmlns:xlink="http://www.w3.org/1999/xlink" width="350" zoomAndPan="magnify" viewBox="0 0 262.5 262.500001" height="350" preserveAspectRatio="xMidYMid meet" version="1.0"><defs><clipPath id="b152627550"><path d="M 12.539062 17.425781 L 207 17.425781 L 207 212 L 12.539062 212 Z M 12.539062 17.425781 " clip-rule="nonzero"/></clipPath><clipPath id="2ab0029c05"><path d="M 53 50 L 249.835938 50 L 249.835938 244.242188 L 53 244.242188 Z M 53 50 " clip-rule="nonzero"/></clipPath></defs><g clip-path="url(#b152627550)"><path fill="#100f0d" d="M 147.503906 205.230469 L 38.820312 205.230469 C 27.632812 205.230469 18.527344 196.15625 18.527344 185 L 18.527344 43.589844 C 18.527344 32.433594 27.632812 23.355469 38.820312 23.355469 L 180.660156 23.355469 C 191.847656 23.355469 200.953125 32.433594 200.953125 43.589844 L 200.953125 129.734375 C 200.953125 131.371094 202.28125 132.695312 203.921875 132.695312 C 205.5625 132.695312 206.890625 131.371094 206.890625 129.734375 L 206.890625 43.589844 C 206.890625 29.167969 195.125 17.433594 180.660156 17.433594 L 38.820312 17.433594 C 24.355469 17.433594 12.589844 29.167969 12.589844 43.589844 L 12.589844 185 C 12.589844 199.421875 24.355469 211.152344 38.820312 211.152344 L 147.503906 211.152344 C 149.140625 211.152344 150.46875 209.828125 150.46875 208.191406 C 150.46875 206.558594 149.140625 205.230469 147.503906 205.230469 " fill-opacity="1" fill-rule="nonzero"/></g><g clip-path="url(#2ab0029c05)"><path fill="#100f0d" d="M 211.222656 187.539062 C 210.421875 187.894531 209.816406 188.585938 209.574219 189.429688 C 209.332031 190.269531 209.472656 191.175781 209.960938 191.898438 L 234.988281 228.988281 L 222.800781 237.164062 L 197.773438 200.078125 C 197.285156 199.351562 196.496094 198.878906 195.625 198.785156 C 195.519531 198.773438 195.414062 198.765625 195.308594 198.765625 C 194.546875 198.765625 193.804688 199.066406 193.25 199.597656 L 170.421875 221.546875 L 157.363281 127.070312 L 240.21875 174.730469 Z M 151.660156 109.835938 L 135.164062 109.835938 L 137.777344 95.347656 L 155.230469 95.347656 Z M 147.171875 128.054688 L 131.878906 128.054688 L 134.09375 115.757812 L 150.203125 115.757812 Z M 129.128906 109.835938 L 113.542969 109.835938 L 113.542969 95.347656 L 131.742188 95.347656 Z M 125.84375 128.054688 L 113.542969 128.054688 L 113.542969 115.757812 L 128.0625 115.757812 Z M 107.605469 89.425781 L 89.371094 89.425781 L 86.898438 75.730469 L 107.605469 75.730469 Z M 107.605469 109.835938 L 93.050781 109.835938 L 90.4375 95.347656 L 107.605469 95.347656 Z M 107.605469 128.054688 L 96.339844 128.054688 L 94.121094 115.757812 L 107.605469 115.757812 Z M 75.949219 128.054688 L 72.386719 115.757812 L 88.085938 115.757812 L 90.304688 128.054688 Z M 70.667969 109.835938 L 66.46875 95.347656 L 84.40625 95.347656 L 87.019531 109.835938 Z M 60.78125 75.730469 L 80.867188 75.730469 L 83.335938 89.425781 L 64.75 89.425781 Z M 113.542969 75.730469 L 135.28125 75.730469 L 132.808594 89.425781 L 113.542969 89.425781 Z M 141.316406 75.730469 L 160.066406 75.730469 L 156.691406 89.425781 L 138.84375 89.425781 Z M 138.332031 175.550781 C 135.691406 175.550781 133.546875 173.414062 133.546875 170.78125 C 133.546875 168.152344 135.691406 166.011719 138.332031 166.011719 C 140.972656 166.011719 143.117188 168.152344 143.117188 170.78125 C 143.117188 173.414062 140.972656 175.550781 138.332031 175.550781 Z M 78.40625 175.550781 C 75.769531 175.550781 73.621094 173.414062 73.621094 170.78125 C 73.621094 168.152344 75.769531 166.011719 78.40625 166.011719 C 81.046875 166.011719 83.191406 168.152344 83.191406 170.78125 C 83.191406 173.414062 81.046875 175.550781 78.40625 175.550781 Z M 248.25 172.511719 L 155.480469 119.152344 L 169.808594 61.023438 C 170.5 58.230469 172.996094 56.277344 175.878906 56.277344 L 186.664062 56.277344 C 188.304688 56.277344 189.632812 54.949219 189.632812 53.316406 C 189.632812 51.683594 188.304688 50.355469 186.664062 50.355469 L 175.878906 50.355469 C 170.253906 50.355469 165.386719 54.160156 164.039062 59.609375 L 161.527344 69.804688 L 56.832031 69.804688 C 55.898438 69.804688 55.019531 70.246094 54.457031 70.988281 C 53.898438 71.734375 53.722656 72.695312 53.980469 73.589844 L 70.863281 131.835938 C 71.230469 133.105469 72.394531 133.976562 73.71875 133.976562 L 145.710938 133.976562 L 139.304688 159.964844 L 79.347656 159.964844 C 79.050781 159.964844 78.761719 160.011719 78.492188 160.089844 C 78.464844 160.089844 78.4375 160.089844 78.40625 160.089844 C 72.492188 160.089844 67.679688 164.886719 67.679688 170.78125 C 67.679688 176.675781 72.492188 181.476562 78.40625 181.476562 C 84.320312 181.476562 89.128906 176.675781 89.128906 170.78125 C 89.128906 169.019531 88.699219 167.355469 87.9375 165.890625 L 128.800781 165.890625 C 128.039062 167.355469 127.609375 169.019531 127.609375 170.78125 C 127.609375 176.675781 132.417969 181.476562 138.332031 181.476562 C 144.246094 181.476562 149.054688 176.675781 149.054688 170.78125 C 149.054688 167.328125 147.402344 164.253906 144.847656 162.296875 L 152.144531 132.6875 L 165.335938 228.128906 C 165.488281 229.230469 166.25 230.15625 167.304688 230.519531 C 168.359375 230.878906 169.535156 230.628906 170.339844 229.855469 L 194.820312 206.308594 L 219.527344 242.925781 C 220.101562 243.773438 221.039062 244.234375 221.996094 244.234375 C 222.566406 244.234375 223.140625 244.070312 223.652344 243.726562 L 240.765625 232.25 C 241.421875 231.808594 241.871094 231.132812 242.023438 230.359375 C 242.175781 229.589844 242.011719 228.792969 241.574219 228.140625 L 216.867188 191.523438 L 247.964844 177.785156 C 248.988281 177.332031 249.671875 176.347656 249.730469 175.234375 C 249.789062 174.121094 249.214844 173.070312 248.25 172.511719 " fill-opacity="1" fill-rule="nonzero"/></g></svg>