<svg xmlns="http://www.w3.org/2000/svg" xmlns:xlink="http://www.w3.org/1999/xlink" width="350" zoomAndPan="magnify" viewBox="0 0 262.5 262.500001" height="350" preserveAspectRatio="xMidYMid meet" version="1.0"><defs><clipPath id="9ada1f89a5"><path d="M 26.199219 35.632812 L 235.800781 35.632812 L 235.800781 226.519531 L 26.199219 226.519531 Z M 26.199219 35.632812 " clip-rule="nonzero"/></clipPath></defs><g clip-path="url(#9ada1f89a5)"><path fill="#ed1e24" d="M 152.773438 162.855469 L 235.800781 226.429688 L 159.5 153.253906 L 195.890625 169.972656 L 166.007812 140.066406 L 188.519531 131.71875 L 169.054688 125.945312 L 230.328125 80.214844 L 149.785156 106.660156 L 171.851562 66.929688 L 140.203125 89.011719 L 140.589844 67.65625 L 132.125 81.769531 L 96.15625 36.410156 L 105.691406 99.398438 L 29.078125 35.71875 L 92.617188 107.871094 L 88.085938 105.496094 L 63.855469 92.773438 C 63.855469 92.773438 76.113281 108.933594 83.285156 117.878906 L 26.203125 113.605469 L 85.207031 137.894531 L 49.160156 155.972656 L 85.484375 146.90625 L 33.753906 204.421875 L 96.15625 152.019531 L 83.324219 174.125 L 98.003906 159.433594 L 104.625 221.097656 L 126.394531 168.640625 L 152.929688 214.402344 L 152.773438 162.855469 " fill-opacity="1" fill-rule="nonzero"/></g><path fill="#f2541b" d="M 144.53125 152.871094 L 204.796875 199.019531 L 149.414062 145.898438 L 175.828125 158.035156 L 154.136719 136.328125 L 170.476562 130.265625 L 156.347656 126.074219 L 200.828125 92.878906 L 142.359375 112.074219 L 158.378906 83.238281 L 135.402344 99.265625 L 135.683594 83.765625 L 129.542969 94.011719 L 103.433594 61.085938 L 110.351562 106.804688 L 54.738281 60.582031 L 100.863281 112.957031 L 97.574219 111.230469 L 79.984375 102 C 79.984375 102 88.882812 113.726562 94.089844 120.21875 L 52.652344 117.117188 L 95.484375 134.75 L 69.316406 147.871094 L 95.683594 141.289062 L 58.132812 183.042969 L 103.433594 145.003906 L 94.117188 161.050781 L 104.773438 150.386719 L 109.578125 195.148438 L 125.378906 157.066406 L 144.644531 190.289062 L 144.53125 152.871094 " fill-opacity="1" fill-rule="nonzero"/><path fill="#efee0e" d="M 138.691406 148.863281 L 182.792969 182.628906 L 142.265625 143.761719 L 161.59375 152.644531 L 145.722656 136.757812 L 157.675781 132.324219 L 147.339844 129.257812 L 179.886719 104.96875 L 137.105469 119.015625 L 148.828125 97.914062 L 132.015625 109.640625 L 132.21875 98.300781 L 127.726562 105.796875 L 108.621094 81.703125 L 113.683594 115.160156 L 72.992188 81.335938 L 106.742188 119.660156 L 104.335938 118.398438 L 91.464844 111.640625 C 91.464844 111.640625 97.976562 120.222656 101.785156 124.972656 L 71.464844 122.703125 L 102.804688 135.605469 L 83.660156 145.207031 L 102.953125 140.390625 L 75.476562 170.941406 L 108.621094 143.109375 L 101.804688 154.851562 L 109.601562 147.046875 L 113.121094 179.796875 L 124.683594 151.9375 L 138.777344 176.242188 L 138.691406 148.863281 " fill-opacity="1" fill-rule="nonzero"/><path fill="#ffffff" d="M 133.101562 142.066406 L 161.941406 165.9375 L 135.636719 138.722656 L 148.429688 145.199219 L 138.144531 134.09375 L 146.308594 131.414062 L 139.425781 129.082031 L 161.960938 113.554688 L 132.789062 121.925781 L 141.222656 108.011719 L 129.601562 115.480469 L 130.027344 107.84375 L 126.808594 112.78125 L 114.554688 96.066406 L 117.113281 118.730469 L 90.566406 94.910156 L 112.324219 121.582031 L 110.734375 120.671875 L 102.238281 115.792969 C 102.238281 115.792969 106.40625 121.738281 108.851562 125.039062 L 88.484375 122.734375 L 109.265625 132.222656 L 96.128906 138.203125 L 109.242188 135.449219 L 89.960938 155.324219 L 112.992188 137.425781 L 108.101562 145.160156 L 113.554688 140.101562 L 115.089844 162.25 L 123.585938 143.777344 L 132.460938 160.511719 L 133.101562 142.066406 " fill-opacity="1" fill-rule="nonzero"/></svg>