<svg xmlns="http://www.w3.org/2000/svg" xmlns:xlink="http://www.w3.org/1999/xlink" width="350" zoomAndPan="magnify" viewBox="0 0 262.5 262.500001" height="350" preserveAspectRatio="xMidYMid meet" version="1.0"><defs><clipPath id="39eb9df4c9"><path d="M 93 54.738281 L 169 54.738281 L 169 101 L 93 101 Z M 93 54.738281 " clip-rule="nonzero"/></clipPath><clipPath id="4f5590c77b"><path d="M 51.355469 126 L 94 126 L 94 195 L 51.355469 195 Z M 51.355469 126 " clip-rule="nonzero"/></clipPath><clipPath id="a654006afe"><path d="M 168 126 L 210.800781 126 L 210.800781 195 L 168 195 Z M 168 126 " clip-rule="nonzero"/></clipPath><clipPath id="2d3fac9dfa"><path d="M 51.355469 199 L 210.800781 199 L 210.800781 207.449219 L 51.355469 207.449219 Z M 51.355469 199 " clip-rule="nonzero"/></clipPath></defs><g clip-path="url(#39eb9df4c9)"><path fill="#f7f7f7" d="M 131 89.429688 L 161.183594 100.917969 L 168.25 99.148438 L 168.25 68.960938 L 162.109375 66.625 L 162.109375 72.179688 L 157.632812 70.476562 L 157.632812 64.917969 L 151.339844 62.523438 L 151.339844 68.082031 L 146.859375 66.375 L 146.859375 60.816406 L 140.566406 58.421875 L 140.566406 63.980469 L 136.089844 62.273438 L 136.089844 56.714844 L 131 54.78125 L 125.910156 56.714844 L 125.910156 62.273438 L 121.429688 63.980469 L 121.429688 58.421875 L 115.136719 60.816406 L 115.136719 66.375 L 110.660156 68.082031 L 110.660156 62.523438 L 104.367188 64.917969 L 104.367188 70.476562 L 99.886719 72.179688 L 99.886719 66.625 L 93.746094 68.960938 L 93.746094 99.148438 L 100.816406 100.917969 Z M 131 89.429688 " fill-opacity="1" fill-rule="nonzero"/></g><path fill="#f7f7f7" d="M 159.871094 194.390625 L 159.871094 108.445312 L 131 97.453125 L 102.125 108.445312 L 102.125 194.390625 L 119.695312 194.390625 L 119.695312 166.722656 C 119.695312 160.484375 124.753906 155.421875 131 155.421875 C 137.238281 155.421875 142.300781 160.480469 142.300781 166.722656 L 142.300781 194.386719 L 159.871094 194.386719 Z M 135.9375 125.652344 L 126.0625 125.652344 L 126.0625 112.328125 C 126.0625 109.605469 128.273438 107.394531 131 107.394531 C 133.726562 107.394531 135.9375 109.601562 135.9375 112.328125 Z M 135.9375 125.652344 " fill-opacity="1" fill-rule="nonzero"/><g clip-path="url(#4f5590c77b)"><path fill="#f7f7f7" d="M 93.746094 126.835938 L 76.746094 131.984375 L 76.746094 140.984375 L 66.300781 144.148438 L 66.300781 135.148438 L 51.355469 139.675781 L 51.355469 194.390625 L 93.746094 194.390625 Z M 76.183594 164.921875 L 68.914062 164.921875 L 68.914062 155.117188 C 68.914062 153.109375 70.542969 151.484375 72.546875 151.484375 C 74.554688 151.484375 76.179688 153.109375 76.179688 155.117188 L 76.179688 164.921875 Z M 76.183594 164.921875 " fill-opacity="1" fill-rule="nonzero"/></g><g clip-path="url(#a654006afe)"><path fill="#f7f7f7" d="M 195.695312 135.148438 L 195.695312 144.148438 L 185.253906 140.984375 L 185.253906 131.984375 L 168.253906 126.835938 L 168.253906 194.390625 L 210.644531 194.390625 L 210.644531 139.675781 Z M 193.082031 164.921875 L 185.8125 164.921875 L 185.8125 155.117188 C 185.8125 153.109375 187.441406 151.484375 189.445312 151.484375 C 191.453125 151.484375 193.078125 153.109375 193.078125 155.117188 L 193.078125 164.921875 Z M 193.082031 164.921875 " fill-opacity="1" fill-rule="nonzero"/></g><g clip-path="url(#2d3fac9dfa)"><path fill="#f7f7f7" d="M 51.355469 199.980469 L 210.644531 199.980469 L 210.644531 207.226562 L 51.355469 207.226562 Z M 51.355469 199.980469 " fill-opacity="1" fill-rule="nonzero"/></g></svg>