<svg xmlns="http://www.w3.org/2000/svg" xmlns:xlink="http://www.w3.org/1999/xlink" width="350" zoomAndPan="magnify" viewBox="0 0 262.5 262.500001" height="350" preserveAspectRatio="xMidYMid meet" version="1.0"><defs><clipPath id="3e08d97905"><path d="M 92 152 L 189 152 L 189 167.808594 L 92 167.808594 Z M 92 152 " clip-rule="nonzero"/></clipPath><clipPath id="087d65eb74"><path d="M 96 94.449219 L 139 94.449219 L 139 149 L 96 149 Z M 96 94.449219 " clip-rule="nonzero"/></clipPath><clipPath id="710534c322"><path d="M 87.316406 150 L 192 150 L 192 153 L 87.316406 153 Z M 87.316406 150 " clip-rule="nonzero"/></clipPath><clipPath id="6e32539beb"><path d="M 104 94.449219 L 147 94.449219 L 147 111 L 104 111 Z M 104 94.449219 " clip-rule="nonzero"/></clipPath><clipPath id="097f5833b3"><path d="M 104 157 L 114 157 L 114 167.808594 L 104 167.808594 Z M 104 157 " clip-rule="nonzero"/></clipPath><clipPath id="834e66faee"><path d="M 114 157 L 125 157 L 125 167.808594 L 114 167.808594 Z M 114 157 " clip-rule="nonzero"/></clipPath><clipPath id="0f379da3f9"><path d="M 131 157 L 142 157 L 142 167.808594 L 131 167.808594 Z M 131 157 " clip-rule="nonzero"/></clipPath><clipPath id="47a9536649"><path d="M 142 157 L 152 157 L 152 167.808594 L 142 167.808594 Z M 142 157 " clip-rule="nonzero"/></clipPath><clipPath id="55f9885979"><path d="M 160 157 L 170 157 L 170 167.808594 L 160 167.808594 Z M 160 157 " clip-rule="nonzero"/></clipPath><clipPath id="8e0b97d454"><path d="M 170 157 L 180 157 L 180 167.808594 L 170 167.808594 Z M 170 157 " clip-rule="nonzero"/></clipPath><clipPath id="2906b8eab4"><path d="M 87.316406 150 L 90 150 L 90 158 L 87.316406 158 Z M 87.316406 150 " clip-rule="nonzero"/></clipPath><clipPath id="cba6830693"><path d="M 191 150 L 194.363281 150 L 194.363281 156 L 191 156 Z M 191 150 " clip-rule="nonzero"/></clipPath></defs><path fill="#afa285" d="M 181.222656 128.039062 L 179.402344 128.039062 L 179.402344 127.554688 L 181.222656 127.554688 L 181.222656 128.039062 " fill-opacity="1" fill-rule="nonzero"/><path fill="#afa285" d="M 181.878906 128.855469 L 180.058594 128.855469 L 180.058594 128.371094 L 181.878906 128.371094 L 181.878906 128.855469 " fill-opacity="1" fill-rule="nonzero"/><path fill="#afa285" d="M 182.679688 129.699219 L 180.859375 129.699219 L 180.859375 129.214844 L 182.679688 129.214844 L 182.679688 129.699219 " fill-opacity="1" fill-rule="nonzero"/><path fill="#afa285" d="M 183.335938 130.511719 L 181.515625 130.511719 L 181.515625 130.027344 L 183.335938 130.027344 L 183.335938 130.511719 " fill-opacity="1" fill-rule="nonzero"/><path fill="#afa285" d="M 184.015625 131.421875 L 182.195312 131.421875 L 182.195312 130.9375 L 184.015625 130.9375 L 184.015625 131.421875 " fill-opacity="1" fill-rule="nonzero"/><path fill="#afa285" d="M 184.671875 132.234375 L 182.851562 132.234375 L 182.851562 131.75 L 184.671875 131.75 L 184.671875 132.234375 " fill-opacity="1" fill-rule="nonzero"/><path fill="#afa285" d="M 185.472656 133.078125 L 183.652344 133.078125 L 183.652344 132.59375 L 185.472656 132.59375 L 185.472656 133.078125 " fill-opacity="1" fill-rule="nonzero"/><path fill="#afa285" d="M 186.128906 133.894531 L 184.308594 133.894531 L 184.308594 133.410156 L 186.128906 133.410156 L 186.128906 133.894531 " fill-opacity="1" fill-rule="nonzero"/><path fill="#695d54" d="M 187.328125 154.402344 L 93.714844 154.402344 L 93.714844 151.507812 L 187.328125 151.507812 L 187.328125 154.402344 " fill-opacity="1" fill-rule="nonzero"/><path fill="#7e6e63" d="M 95.398438 157.125 L 108.972656 162.578125 L 175.316406 162.578125 L 187.132812 157.671875 L 186.339844 153.28125 C 186.339844 153.28125 167.011719 155.8125 155.699219 153.351562 C 155.699219 153.890625 146.132812 154.546875 141.183594 153.28125 C 135.390625 154.167969 123.023438 154.683594 115.28125 153.394531 C 109.421875 154.136719 95.839844 153.28125 95.839844 153.28125 L 95.398438 157.125 " fill-opacity="1" fill-rule="nonzero"/><g clip-path="url(#3e08d97905)"><path fill="#afa285" d="M 93.398438 160.679688 L 106.5 166.160156 C 107.867188 166.730469 109.308594 167.019531 110.789062 167.015625 L 174.425781 166.886719 C 175.273438 166.886719 176.125 166.695312 176.890625 166.332031 L 188.011719 161.0625 L 186.046875 153.488281 C 183.566406 153.792969 168.308594 155.523438 156.488281 153.867188 C 155.96875 153.796875 155.425781 153.796875 154.871094 153.867188 C 152.421875 154.1875 146.210938 154.832031 141.425781 153.867188 C 140.84375 153.75 140.265625 153.722656 139.710938 153.78125 C 136.066406 154.160156 123.585938 155.304688 116.0625 153.941406 C 115.199219 153.785156 114.335938 153.746094 113.5 153.832031 C 110.367188 154.148438 102.429688 154.730469 95.652344 153.394531 C 95.308594 154.441406 94.203125 158.046875 93.398438 160.679688 Z M 110.765625 167.808594 C 109.1875 167.808594 107.652344 167.5 106.195312 166.890625 L 92.433594 161.136719 L 92.539062 160.792969 C 92.539062 160.792969 93.144531 158.800781 93.757812 156.8125 C 94.066406 155.816406 94.375 154.816406 94.609375 154.070312 C 95.070312 152.609375 95.070312 152.609375 95.308594 152.550781 L 95.53125 152.5 L 95.601562 152.574219 C 102.316406 153.945312 110.292969 153.359375 113.421875 153.046875 C 114.332031 152.953125 115.265625 152.992188 116.203125 153.164062 C 123.625 154.503906 136.007812 153.371094 139.628906 152.992188 C 140.261719 152.925781 140.917969 152.960938 141.578125 153.09375 C 146.25 154.03125 152.359375 153.398438 154.765625 153.085938 C 155.394531 153 156.007812 153.003906 156.597656 153.085938 C 169.332031 154.867188 186.121094 152.683594 186.289062 152.660156 L 186.632812 152.617188 L 188.941406 161.496094 L 177.226562 167.046875 C 176.359375 167.457031 175.390625 167.679688 174.429688 167.679688 L 110.789062 167.808594 C 110.78125 167.808594 110.773438 167.808594 110.765625 167.808594 " fill-opacity="1" fill-rule="nonzero"/></g><g clip-path="url(#087d65eb74)"><path fill="#d7c59e" d="M 101.359375 132.457031 L 107.933594 111.628906 L 104.5 94.445312 L 96.4375 132.457031 L 96.4375 148.054688 L 138.105469 148.054688 L 138.105469 132.457031 L 101.359375 132.457031 " fill-opacity="1" fill-rule="nonzero"/></g><path fill="#afa285" d="M 189.117188 139.921875 L 192.914062 139.921875 L 192.664062 140.550781 L 191.960938 140.550781 L 190.152344 146.570312 L 189.117188 139.921875 " fill-opacity="1" fill-rule="nonzero"/><path fill="#afa285" d="M 138.28125 148.054688 L 96.613281 148.054688 L 104.5 109.898438 L 146.167969 109.898438 L 138.28125 148.054688 " fill-opacity="1" fill-rule="nonzero"/><g clip-path="url(#710534c322)"><path fill="#afa285" d="M 191.648438 152.621094 L 87.414062 152.621094 L 87.414062 150.394531 L 191.648438 150.394531 L 191.648438 152.621094 " fill-opacity="1" fill-rule="nonzero"/></g><path fill="#d7c59e" d="M 189.566406 138.730469 L 178.414062 125.621094 L 160.273438 125.621094 L 160.273438 136.355469 L 147.832031 136.355469 L 147.832031 150.394531 L 191.648438 150.394531 L 189.566406 138.730469 " fill-opacity="1" fill-rule="nonzero"/><path fill="#afa285" d="M 160.320312 136.355469 L 165.621094 142.03125 L 165.621094 150.394531 L 167.503906 150.433594 L 167.199219 141.589844 L 160.320312 133.582031 L 160.320312 136.355469 " fill-opacity="1" fill-rule="nonzero"/><path fill="#afa285" d="M 159.871094 149.277344 L 149.324219 149.277344 L 149.324219 137.5625 L 159.871094 137.5625 L 159.871094 149.277344 " fill-opacity="1" fill-rule="nonzero"/><path fill="#695d54" d="M 150.351562 148.917969 L 149.78125 148.917969 L 149.78125 137.921875 L 150.351562 137.921875 L 150.351562 148.917969 " fill-opacity="1" fill-rule="nonzero"/><path fill="#695d54" d="M 151.46875 148.917969 L 150.898438 148.917969 L 150.898438 137.921875 L 151.46875 137.921875 L 151.46875 148.917969 " fill-opacity="1" fill-rule="nonzero"/><path fill="#695d54" d="M 152.632812 148.917969 L 152.0625 148.917969 L 152.0625 137.921875 L 152.632812 137.921875 L 152.632812 148.917969 " fill-opacity="1" fill-rule="nonzero"/><path fill="#695d54" d="M 153.746094 148.917969 L 153.179688 148.917969 L 153.179688 137.921875 L 153.746094 137.921875 L 153.746094 148.917969 " fill-opacity="1" fill-rule="nonzero"/><path fill="#695d54" d="M 154.867188 148.917969 L 154.296875 148.917969 L 154.296875 137.921875 L 154.867188 137.921875 L 154.867188 148.917969 " fill-opacity="1" fill-rule="nonzero"/><path fill="#695d54" d="M 155.980469 148.917969 L 155.414062 148.917969 L 155.414062 137.921875 L 155.980469 137.921875 L 155.980469 148.917969 " fill-opacity="1" fill-rule="nonzero"/><path fill="#695d54" d="M 157.164062 148.917969 L 156.59375 148.917969 L 156.59375 137.921875 L 157.164062 137.921875 L 157.164062 148.917969 " fill-opacity="1" fill-rule="nonzero"/><path fill="#695d54" d="M 158.28125 148.917969 L 157.710938 148.917969 L 157.710938 137.921875 L 158.28125 137.921875 L 158.28125 148.917969 " fill-opacity="1" fill-rule="nonzero"/><path fill="#695d54" d="M 159.433594 148.917969 L 158.863281 148.917969 L 158.863281 137.921875 L 159.433594 137.921875 L 159.433594 148.917969 " fill-opacity="1" fill-rule="nonzero"/><path fill="#695d54" d="M 169.722656 127.710938 L 169.320312 148.046875 C 169.308594 148.523438 169.695312 148.917969 170.171875 148.917969 L 183.867188 148.917969 C 184.347656 148.917969 184.734375 148.519531 184.71875 148.035156 L 184.359375 136.253906 C 184.355469 136.078125 184.292969 135.902344 184.1875 135.761719 L 177.707031 127.210938 C 177.546875 127 177.296875 126.875 177.027344 126.875 L 170.574219 126.875 C 170.113281 126.875 169.734375 127.246094 169.722656 127.710938 " fill-opacity="1" fill-rule="nonzero"/><path fill="#d7c59e" d="M 170.148438 128.097656 L 169.765625 147.664062 C 169.757812 148.125 170.121094 148.503906 170.570312 148.503906 L 183.46875 148.503906 C 183.921875 148.503906 184.285156 148.117188 184.273438 147.65625 L 183.933594 136.316406 C 183.929688 136.144531 183.871094 135.980469 183.769531 135.84375 L 177.667969 127.613281 C 177.515625 127.410156 177.277344 127.289062 177.027344 127.289062 L 170.949219 127.289062 C 170.511719 127.289062 170.15625 127.648438 170.148438 128.097656 " fill-opacity="1" fill-rule="nonzero"/><path fill="#695d54" d="M 171.503906 129.355469 L 171.503906 134.386719 C 171.503906 134.628906 171.699219 134.824219 171.9375 134.824219 L 180.785156 134.824219 C 181.144531 134.824219 181.351562 134.414062 181.132812 134.125 L 177.375 129.097656 C 177.292969 128.988281 177.164062 128.921875 177.027344 128.921875 L 171.9375 128.917969 C 171.699219 128.917969 171.503906 129.117188 171.503906 129.355469 " fill-opacity="1" fill-rule="nonzero"/><path fill="#d7c59e" d="M 171.832031 129.605469 L 171.832031 134.136719 C 171.832031 134.355469 172.007812 134.53125 172.222656 134.53125 L 180.179688 134.53125 C 180.503906 134.53125 180.6875 134.160156 180.496094 133.902344 L 177.113281 129.375 C 177.039062 129.273438 176.921875 129.214844 176.800781 129.214844 L 172.222656 129.214844 C 172.007812 129.214844 171.832031 129.390625 171.832031 129.605469 " fill-opacity="1" fill-rule="nonzero"/><path fill="#30353c" d="M 177.085938 132.867188 L 172.765625 132.867188 C 172.675781 132.867188 172.597656 132.792969 172.597656 132.699219 L 172.597656 130.925781 C 172.597656 130.832031 172.675781 130.757812 172.765625 130.757812 L 177.085938 130.757812 C 177.179688 130.757812 177.253906 130.832031 177.253906 130.925781 L 177.253906 132.699219 C 177.253906 132.792969 177.179688 132.867188 177.085938 132.867188 " fill-opacity="1" fill-rule="nonzero"/><path fill="#d7c59e" d="M 146.167969 150.433594 L 89.386719 150.433594 L 89.386719 148.054688 L 146.167969 148.054688 L 146.167969 150.433594 " fill-opacity="1" fill-rule="nonzero"/><path fill="#877f6b" d="M 146.167969 150.433594 L 123.648438 150.433594 L 123.648438 148.054688 L 146.167969 148.054688 L 146.167969 150.433594 " fill-opacity="1" fill-rule="nonzero"/><g clip-path="url(#6e32539beb)"><path fill="#d7c59e" d="M 146.167969 110.046875 L 104.5 110.046875 L 104.5 94.445312 L 146.167969 94.445312 L 146.167969 110.046875 " fill-opacity="1" fill-rule="nonzero"/></g><path fill="#695d54" d="M 145.117188 109.011719 L 105.945312 109.011719 L 105.945312 95.484375 L 145.117188 95.484375 L 145.117188 109.011719 " fill-opacity="1" fill-rule="nonzero"/><path fill="#d7c59e" d="M 127.109375 109.261719 L 123.953125 109.261719 L 123.953125 95.230469 L 127.109375 95.230469 L 127.109375 109.261719 " fill-opacity="1" fill-rule="nonzero"/><path fill="#877f6b" d="M 136.804688 145.503906 L 100.703125 145.503906 L 107.320312 113.125 L 143.421875 113.125 L 136.804688 145.503906 " fill-opacity="1" fill-rule="nonzero"/><path fill="#768390" d="M 138.777344 139.34375 L 143.027344 148.054688 L 145.304688 148.054688 L 140.003906 137.761719 C 140.003906 137.761719 138.863281 137.34375 138.777344 139.34375 " fill-opacity="1" fill-rule="nonzero"/><path fill="#768390" d="M 99.417969 139.34375 L 103.667969 148.054688 L 105.945312 148.054688 L 100.644531 137.761719 C 100.644531 137.761719 99.507812 137.34375 99.417969 139.34375 " fill-opacity="1" fill-rule="nonzero"/><path fill="#afa285" d="M 111.917969 98.726562 C 111.917969 100.113281 110.800781 101.234375 109.421875 101.234375 C 108.042969 101.234375 106.925781 100.113281 106.925781 98.726562 C 106.925781 97.34375 108.042969 96.222656 109.421875 96.222656 C 110.800781 96.222656 111.917969 97.34375 111.917969 98.726562 " fill-opacity="1" fill-rule="nonzero"/><path fill="#afa285" d="M 117.703125 98.726562 C 117.703125 100.113281 116.585938 101.234375 115.207031 101.234375 C 113.824219 101.234375 112.707031 100.113281 112.707031 98.726562 C 112.707031 97.34375 113.824219 96.222656 115.207031 96.222656 C 116.585938 96.222656 117.703125 97.34375 117.703125 98.726562 " fill-opacity="1" fill-rule="nonzero"/><path fill="#afa285" d="M 123.453125 98.726562 C 123.453125 100.113281 122.335938 101.234375 120.957031 101.234375 C 119.578125 101.234375 118.457031 100.113281 118.457031 98.726562 C 118.457031 97.34375 119.578125 96.222656 120.957031 96.222656 C 122.335938 96.222656 123.453125 97.34375 123.453125 98.726562 " fill-opacity="1" fill-rule="nonzero"/><path fill="#afa285" d="M 111.933594 104.753906 C 111.933594 106.140625 110.816406 107.261719 109.4375 107.261719 C 108.058594 107.261719 106.941406 106.140625 106.941406 104.753906 C 106.941406 103.371094 108.058594 102.246094 109.4375 102.246094 C 110.816406 102.246094 111.933594 103.371094 111.933594 104.753906 " fill-opacity="1" fill-rule="nonzero"/><path fill="#afa285" d="M 117.71875 104.753906 C 117.71875 106.140625 116.601562 107.261719 115.222656 107.261719 C 113.84375 107.261719 112.722656 106.140625 112.722656 104.753906 C 112.722656 103.371094 113.84375 102.246094 115.222656 102.246094 C 116.601562 102.246094 117.71875 103.371094 117.71875 104.753906 " fill-opacity="1" fill-rule="nonzero"/><path fill="#afa285" d="M 123.46875 104.753906 C 123.46875 106.140625 122.351562 107.261719 120.972656 107.261719 C 119.59375 107.261719 118.476562 106.140625 118.476562 104.753906 C 118.476562 103.371094 119.59375 102.246094 120.972656 102.246094 C 122.351562 102.246094 123.46875 103.371094 123.46875 104.753906 " fill-opacity="1" fill-rule="nonzero"/><path fill="#afa285" d="M 132.71875 98.726562 C 132.71875 100.113281 131.601562 101.234375 130.222656 101.234375 C 128.84375 101.234375 127.726562 100.113281 127.726562 98.726562 C 127.726562 97.34375 128.84375 96.222656 130.222656 96.222656 C 131.601562 96.222656 132.71875 97.34375 132.71875 98.726562 " fill-opacity="1" fill-rule="nonzero"/><path fill="#afa285" d="M 138.503906 98.726562 C 138.503906 100.113281 137.386719 101.234375 136.007812 101.234375 C 134.625 101.234375 133.507812 100.113281 133.507812 98.726562 C 133.507812 97.34375 134.625 96.222656 136.007812 96.222656 C 137.386719 96.222656 138.503906 97.34375 138.503906 98.726562 " fill-opacity="1" fill-rule="nonzero"/><path fill="#afa285" d="M 144.253906 98.726562 C 144.253906 100.113281 143.136719 101.234375 141.757812 101.234375 C 140.378906 101.234375 139.257812 100.113281 139.257812 98.726562 C 139.257812 97.34375 140.378906 96.222656 141.757812 96.222656 C 143.136719 96.222656 144.253906 97.34375 144.253906 98.726562 " fill-opacity="1" fill-rule="nonzero"/><path fill="#afa285" d="M 132.734375 104.753906 C 132.734375 106.140625 131.617188 107.261719 130.238281 107.261719 C 128.859375 107.261719 127.742188 106.140625 127.742188 104.753906 C 127.742188 103.371094 128.859375 102.246094 130.238281 102.246094 C 131.617188 102.246094 132.734375 103.371094 132.734375 104.753906 " fill-opacity="1" fill-rule="nonzero"/><path fill="#afa285" d="M 138.519531 104.753906 C 138.519531 106.140625 137.402344 107.261719 136.023438 107.261719 C 134.644531 107.261719 133.523438 106.140625 133.523438 104.753906 C 133.523438 103.371094 134.644531 102.246094 136.023438 102.246094 C 137.402344 102.246094 138.519531 103.371094 138.519531 104.753906 " fill-opacity="1" fill-rule="nonzero"/><path fill="#afa285" d="M 144.269531 104.753906 C 144.269531 106.140625 143.152344 107.261719 141.773438 107.261719 C 140.394531 107.261719 139.273438 106.140625 139.273438 104.753906 C 139.273438 103.371094 140.394531 102.246094 141.773438 102.246094 C 143.152344 102.246094 144.269531 103.371094 144.269531 104.753906 " fill-opacity="1" fill-rule="nonzero"/><g clip-path="url(#097f5833b3)"><path fill="#3c444b" d="M 113.640625 162.6875 C 113.640625 165.300781 111.550781 167.417969 108.972656 167.417969 C 106.394531 167.417969 104.304688 165.300781 104.304688 162.6875 C 104.304688 160.074219 106.394531 157.957031 108.972656 157.957031 C 111.550781 157.957031 113.640625 160.074219 113.640625 162.6875 " fill-opacity="1" fill-rule="nonzero"/></g><path fill="#877f6b" d="M 113.070312 162.6875 C 113.070312 164.933594 111.234375 166.757812 108.972656 166.757812 C 106.710938 166.757812 104.875 164.933594 104.875 162.6875 C 104.875 160.441406 106.710938 158.617188 108.972656 158.617188 C 111.234375 158.617188 113.070312 160.441406 113.070312 162.6875 " fill-opacity="1" fill-rule="nonzero"/><path fill="#5d574b" d="M 110.617188 162.578125 C 110.617188 163.511719 109.878906 164.273438 108.972656 164.273438 C 108.066406 164.273438 107.328125 163.511719 107.328125 162.578125 C 107.328125 161.640625 108.066406 160.882812 108.972656 160.882812 C 109.878906 160.882812 110.617188 161.640625 110.617188 162.578125 " fill-opacity="1" fill-rule="nonzero"/><path fill="#5d574b" d="M 106.628906 162.578125 C 106.628906 162.859375 106.40625 163.089844 106.136719 163.089844 C 105.863281 163.089844 105.644531 162.859375 105.644531 162.578125 C 105.644531 162.296875 105.863281 162.066406 106.136719 162.066406 C 106.40625 162.066406 106.628906 162.296875 106.628906 162.578125 " fill-opacity="1" fill-rule="nonzero"/><path fill="#5d574b" d="M 112.246094 162.578125 C 112.246094 162.859375 112.027344 163.089844 111.753906 163.089844 C 111.484375 163.089844 111.261719 162.859375 111.261719 162.578125 C 111.261719 162.296875 111.484375 162.066406 111.753906 162.066406 C 112.027344 162.066406 112.246094 162.296875 112.246094 162.578125 " fill-opacity="1" fill-rule="nonzero"/><path fill="#5d574b" d="M 109.464844 159.742188 C 109.464844 160.023438 109.246094 160.25 108.972656 160.25 C 108.699219 160.25 108.480469 160.023438 108.480469 159.742188 C 108.480469 159.457031 108.699219 159.230469 108.972656 159.230469 C 109.246094 159.230469 109.464844 159.457031 109.464844 159.742188 " fill-opacity="1" fill-rule="nonzero"/><path fill="#5d574b" d="M 109.464844 165.636719 C 109.464844 165.917969 109.246094 166.148438 108.972656 166.148438 C 108.699219 166.148438 108.480469 165.917969 108.480469 165.636719 C 108.480469 165.351562 108.699219 165.125 108.972656 165.125 C 109.246094 165.125 109.464844 165.351562 109.464844 165.636719 " fill-opacity="1" fill-rule="nonzero"/><path fill="#5d574b" d="M 107.40625 164.613281 C 107.40625 164.894531 107.1875 165.125 106.914062 165.125 C 106.640625 165.125 106.421875 164.894531 106.421875 164.613281 C 106.421875 164.328125 106.640625 164.101562 106.914062 164.101562 C 107.1875 164.101562 107.40625 164.328125 107.40625 164.613281 " fill-opacity="1" fill-rule="nonzero"/><path fill="#5d574b" d="M 111.480469 160.566406 C 111.480469 160.847656 111.261719 161.078125 110.988281 161.078125 C 110.714844 161.078125 110.496094 160.847656 110.496094 160.566406 C 110.496094 160.28125 110.714844 160.054688 110.988281 160.054688 C 111.261719 160.054688 111.480469 160.28125 111.480469 160.566406 " fill-opacity="1" fill-rule="nonzero"/><path fill="#5d574b" d="M 107.328125 160.566406 C 107.328125 160.847656 107.109375 161.078125 106.835938 161.078125 C 106.566406 161.078125 106.34375 160.847656 106.34375 160.566406 C 106.34375 160.28125 106.566406 160.054688 106.835938 160.054688 C 107.109375 160.054688 107.328125 160.28125 107.328125 160.566406 " fill-opacity="1" fill-rule="nonzero"/><path fill="#5d574b" d="M 111.558594 164.613281 C 111.558594 164.894531 111.335938 165.125 111.066406 165.125 C 110.792969 165.125 110.570312 164.894531 110.570312 164.613281 C 110.570312 164.328125 110.792969 164.101562 111.066406 164.101562 C 111.335938 164.101562 111.558594 164.328125 111.558594 164.613281 " fill-opacity="1" fill-rule="nonzero"/><path fill="#877f6b" d="M 110.164062 162.578125 C 110.164062 163.234375 109.628906 163.765625 108.972656 163.765625 C 108.316406 163.765625 107.78125 163.234375 107.78125 162.578125 C 107.78125 161.921875 108.316406 161.390625 108.972656 161.390625 C 109.628906 161.390625 110.164062 161.921875 110.164062 162.578125 " fill-opacity="1" fill-rule="nonzero"/><path fill="#d7c59e" d="M 117.03125 155.476562 C 117.03125 156.6875 116.054688 157.671875 114.847656 157.671875 C 113.640625 157.671875 112.660156 156.6875 112.660156 155.476562 C 112.660156 154.265625 113.640625 153.28125 114.847656 153.28125 C 116.054688 153.28125 117.03125 154.265625 117.03125 155.476562 " fill-opacity="1" fill-rule="nonzero"/><path fill="#877f6b" d="M 116.5 155.476562 C 116.5 156.390625 115.757812 157.132812 114.847656 157.132812 C 113.933594 157.132812 113.195312 156.390625 113.195312 155.476562 C 113.195312 154.558594 113.933594 153.816406 114.847656 153.816406 C 115.757812 153.816406 116.5 154.558594 116.5 155.476562 " fill-opacity="1" fill-rule="nonzero"/><path fill="#d7c59e" d="M 115.40625 155.425781 C 115.40625 155.730469 115.15625 155.976562 114.847656 155.976562 C 114.539062 155.976562 114.289062 155.730469 114.289062 155.425781 C 114.289062 155.121094 114.539062 154.875 114.847656 154.875 C 115.15625 154.875 115.40625 155.121094 115.40625 155.425781 " fill-opacity="1" fill-rule="nonzero"/><g clip-path="url(#834e66faee)"><path fill="#3c444b" d="M 124.042969 162.6875 C 124.042969 165.300781 121.953125 167.417969 119.375 167.417969 C 116.800781 167.417969 114.710938 165.300781 114.710938 162.6875 C 114.710938 160.074219 116.800781 157.957031 119.375 157.957031 C 121.953125 157.957031 124.042969 160.074219 124.042969 162.6875 " fill-opacity="1" fill-rule="nonzero"/></g><path fill="#877f6b" d="M 123.472656 162.6875 C 123.472656 164.933594 121.640625 166.757812 119.375 166.757812 C 117.113281 166.757812 115.28125 164.933594 115.28125 162.6875 C 115.28125 160.441406 117.113281 158.617188 119.375 158.617188 C 121.640625 158.617188 123.472656 160.441406 123.472656 162.6875 " fill-opacity="1" fill-rule="nonzero"/><path fill="#5d574b" d="M 121.019531 162.578125 C 121.019531 163.511719 120.285156 164.273438 119.375 164.273438 C 118.46875 164.273438 117.734375 163.511719 117.734375 162.578125 C 117.734375 161.640625 118.46875 160.882812 119.375 160.882812 C 120.285156 160.882812 121.019531 161.640625 121.019531 162.578125 " fill-opacity="1" fill-rule="nonzero"/><path fill="#5d574b" d="M 117.03125 162.578125 C 117.03125 162.859375 116.8125 163.089844 116.539062 163.089844 C 116.265625 163.089844 116.046875 162.859375 116.046875 162.578125 C 116.046875 162.296875 116.265625 162.066406 116.539062 162.066406 C 116.8125 162.066406 117.03125 162.296875 117.03125 162.578125 " fill-opacity="1" fill-rule="nonzero"/><path fill="#5d574b" d="M 122.652344 162.578125 C 122.652344 162.859375 122.429688 163.089844 122.160156 163.089844 C 121.886719 163.089844 121.664062 162.859375 121.664062 162.578125 C 121.664062 162.296875 121.886719 162.066406 122.160156 162.066406 C 122.429688 162.066406 122.652344 162.296875 122.652344 162.578125 " fill-opacity="1" fill-rule="nonzero"/><path fill="#5d574b" d="M 119.871094 159.742188 C 119.871094 160.023438 119.648438 160.25 119.375 160.25 C 119.105469 160.25 118.882812 160.023438 118.882812 159.742188 C 118.882812 159.457031 119.105469 159.230469 119.375 159.230469 C 119.648438 159.230469 119.871094 159.457031 119.871094 159.742188 " fill-opacity="1" fill-rule="nonzero"/><path fill="#5d574b" d="M 119.871094 165.636719 C 119.871094 165.917969 119.648438 166.148438 119.375 166.148438 C 119.105469 166.148438 118.882812 165.917969 118.882812 165.636719 C 118.882812 165.351562 119.105469 165.125 119.375 165.125 C 119.648438 165.125 119.871094 165.351562 119.871094 165.636719 " fill-opacity="1" fill-rule="nonzero"/><path fill="#5d574b" d="M 117.808594 164.613281 C 117.808594 164.894531 117.589844 165.125 117.316406 165.125 C 117.046875 165.125 116.824219 164.894531 116.824219 164.613281 C 116.824219 164.328125 117.046875 164.101562 117.316406 164.101562 C 117.589844 164.101562 117.808594 164.328125 117.808594 164.613281 " fill-opacity="1" fill-rule="nonzero"/><path fill="#5d574b" d="M 121.886719 160.566406 C 121.886719 160.847656 121.664062 161.078125 121.390625 161.078125 C 121.121094 161.078125 120.898438 160.847656 120.898438 160.566406 C 120.898438 160.28125 121.121094 160.054688 121.390625 160.054688 C 121.664062 160.054688 121.886719 160.28125 121.886719 160.566406 " fill-opacity="1" fill-rule="nonzero"/><path fill="#5d574b" d="M 117.734375 160.566406 C 117.734375 160.847656 117.511719 161.078125 117.242188 161.078125 C 116.96875 161.078125 116.746094 160.847656 116.746094 160.566406 C 116.746094 160.28125 116.96875 160.054688 117.242188 160.054688 C 117.511719 160.054688 117.734375 160.28125 117.734375 160.566406 " fill-opacity="1" fill-rule="nonzero"/><path fill="#5d574b" d="M 121.960938 164.613281 C 121.960938 164.894531 121.742188 165.125 121.46875 165.125 C 121.195312 165.125 120.976562 164.894531 120.976562 164.613281 C 120.976562 164.328125 121.195312 164.101562 121.46875 164.101562 C 121.742188 164.101562 121.960938 164.328125 121.960938 164.613281 " fill-opacity="1" fill-rule="nonzero"/><path fill="#877f6b" d="M 120.566406 162.578125 C 120.566406 163.234375 120.035156 163.765625 119.375 163.765625 C 118.71875 163.765625 118.183594 163.234375 118.183594 162.578125 C 118.183594 161.921875 118.71875 161.390625 119.375 161.390625 C 120.035156 161.390625 120.566406 161.921875 120.566406 162.578125 " fill-opacity="1" fill-rule="nonzero"/><g clip-path="url(#0f379da3f9)"><path fill="#3c444b" d="M 141.195312 162.6875 C 141.195312 165.300781 139.105469 167.417969 136.53125 167.417969 C 133.953125 167.417969 131.863281 165.300781 131.863281 162.6875 C 131.863281 160.074219 133.953125 157.957031 136.53125 157.957031 C 139.105469 157.957031 141.195312 160.074219 141.195312 162.6875 " fill-opacity="1" fill-rule="nonzero"/></g><path fill="#877f6b" d="M 140.625 162.6875 C 140.625 164.933594 138.792969 166.757812 136.53125 166.757812 C 134.265625 166.757812 132.433594 164.933594 132.433594 162.6875 C 132.433594 160.441406 134.265625 158.617188 136.53125 158.617188 C 138.792969 158.617188 140.625 160.441406 140.625 162.6875 " fill-opacity="1" fill-rule="nonzero"/><path fill="#5d574b" d="M 138.171875 162.578125 C 138.171875 163.511719 137.4375 164.273438 136.53125 164.273438 C 135.621094 164.273438 134.886719 163.511719 134.886719 162.578125 C 134.886719 161.640625 135.621094 160.882812 136.53125 160.882812 C 137.4375 160.882812 138.171875 161.640625 138.171875 162.578125 " fill-opacity="1" fill-rule="nonzero"/><path fill="#5d574b" d="M 134.1875 162.578125 C 134.1875 162.859375 133.964844 163.089844 133.691406 163.089844 C 133.421875 163.089844 133.199219 162.859375 133.199219 162.578125 C 133.199219 162.296875 133.421875 162.066406 133.691406 162.066406 C 133.964844 162.066406 134.1875 162.296875 134.1875 162.578125 " fill-opacity="1" fill-rule="nonzero"/><path fill="#5d574b" d="M 139.804688 162.578125 C 139.804688 162.859375 139.585938 163.089844 139.3125 163.089844 C 139.039062 163.089844 138.820312 162.859375 138.820312 162.578125 C 138.820312 162.296875 139.039062 162.066406 139.3125 162.066406 C 139.585938 162.066406 139.804688 162.296875 139.804688 162.578125 " fill-opacity="1" fill-rule="nonzero"/><path fill="#5d574b" d="M 137.023438 159.742188 C 137.023438 160.023438 136.800781 160.25 136.53125 160.25 C 136.257812 160.25 136.035156 160.023438 136.035156 159.742188 C 136.035156 159.457031 136.257812 159.230469 136.53125 159.230469 C 136.800781 159.230469 137.023438 159.457031 137.023438 159.742188 " fill-opacity="1" fill-rule="nonzero"/><path fill="#5d574b" d="M 137.023438 165.636719 C 137.023438 165.917969 136.800781 166.148438 136.53125 166.148438 C 136.257812 166.148438 136.035156 165.917969 136.035156 165.636719 C 136.035156 165.351562 136.257812 165.125 136.53125 165.125 C 136.800781 165.125 137.023438 165.351562 137.023438 165.636719 " fill-opacity="1" fill-rule="nonzero"/><path fill="#5d574b" d="M 134.964844 164.613281 C 134.964844 164.894531 134.742188 165.125 134.46875 165.125 C 134.199219 165.125 133.976562 164.894531 133.976562 164.613281 C 133.976562 164.328125 134.199219 164.101562 134.46875 164.101562 C 134.742188 164.101562 134.964844 164.328125 134.964844 164.613281 " fill-opacity="1" fill-rule="nonzero"/><path fill="#5d574b" d="M 139.039062 160.566406 C 139.039062 160.847656 138.816406 161.078125 138.546875 161.078125 C 138.273438 161.078125 138.050781 160.847656 138.050781 160.566406 C 138.050781 160.28125 138.273438 160.054688 138.546875 160.054688 C 138.816406 160.054688 139.039062 160.28125 139.039062 160.566406 " fill-opacity="1" fill-rule="nonzero"/><path fill="#5d574b" d="M 134.886719 160.566406 C 134.886719 160.847656 134.667969 161.078125 134.394531 161.078125 C 134.121094 161.078125 133.902344 160.847656 133.902344 160.566406 C 133.902344 160.28125 134.121094 160.054688 134.394531 160.054688 C 134.667969 160.054688 134.886719 160.28125 134.886719 160.566406 " fill-opacity="1" fill-rule="nonzero"/><path fill="#5d574b" d="M 139.113281 164.613281 C 139.113281 164.894531 138.894531 165.125 138.621094 165.125 C 138.351562 165.125 138.128906 164.894531 138.128906 164.613281 C 138.128906 164.328125 138.351562 164.101562 138.621094 164.101562 C 138.894531 164.101562 139.113281 164.328125 139.113281 164.613281 " fill-opacity="1" fill-rule="nonzero"/><path fill="#877f6b" d="M 137.722656 162.578125 C 137.722656 163.234375 137.1875 163.765625 136.53125 163.765625 C 135.871094 163.765625 135.339844 163.234375 135.339844 162.578125 C 135.339844 161.921875 135.871094 161.390625 136.53125 161.390625 C 137.1875 161.390625 137.722656 161.921875 137.722656 162.578125 " fill-opacity="1" fill-rule="nonzero"/><g clip-path="url(#47a9536649)"><path fill="#3c444b" d="M 151.601562 162.6875 C 151.601562 165.300781 149.511719 167.417969 146.933594 167.417969 C 144.355469 167.417969 142.265625 165.300781 142.265625 162.6875 C 142.265625 160.074219 144.355469 157.957031 146.933594 157.957031 C 149.511719 157.957031 151.601562 160.074219 151.601562 162.6875 " fill-opacity="1" fill-rule="nonzero"/></g><path fill="#877f6b" d="M 151.03125 162.6875 C 151.03125 164.933594 149.195312 166.757812 146.933594 166.757812 C 144.671875 166.757812 142.835938 164.933594 142.835938 162.6875 C 142.835938 160.441406 144.671875 158.617188 146.933594 158.617188 C 149.195312 158.617188 151.03125 160.441406 151.03125 162.6875 " fill-opacity="1" fill-rule="nonzero"/><path fill="#5d574b" d="M 148.578125 162.578125 C 148.578125 163.511719 147.839844 164.273438 146.933594 164.273438 C 146.027344 164.273438 145.292969 163.511719 145.292969 162.578125 C 145.292969 161.640625 146.027344 160.882812 146.933594 160.882812 C 147.839844 160.882812 148.578125 161.640625 148.578125 162.578125 " fill-opacity="1" fill-rule="nonzero"/><path fill="#5d574b" d="M 144.589844 162.578125 C 144.589844 162.859375 144.367188 163.089844 144.097656 163.089844 C 143.824219 163.089844 143.605469 162.859375 143.605469 162.578125 C 143.605469 162.296875 143.824219 162.066406 144.097656 162.066406 C 144.367188 162.066406 144.589844 162.296875 144.589844 162.578125 " fill-opacity="1" fill-rule="nonzero"/><path fill="#5d574b" d="M 150.207031 162.578125 C 150.207031 162.859375 149.988281 163.089844 149.714844 163.089844 C 149.445312 163.089844 149.222656 162.859375 149.222656 162.578125 C 149.222656 162.296875 149.445312 162.066406 149.714844 162.066406 C 149.988281 162.066406 150.207031 162.296875 150.207031 162.578125 " fill-opacity="1" fill-rule="nonzero"/><path fill="#5d574b" d="M 147.425781 159.742188 C 147.425781 160.023438 147.207031 160.25 146.933594 160.25 C 146.660156 160.25 146.441406 160.023438 146.441406 159.742188 C 146.441406 159.457031 146.660156 159.230469 146.933594 159.230469 C 147.207031 159.230469 147.425781 159.457031 147.425781 159.742188 " fill-opacity="1" fill-rule="nonzero"/><path fill="#5d574b" d="M 147.425781 165.636719 C 147.425781 165.917969 147.207031 166.148438 146.933594 166.148438 C 146.660156 166.148438 146.441406 165.917969 146.441406 165.636719 C 146.441406 165.351562 146.660156 165.125 146.933594 165.125 C 147.207031 165.125 147.425781 165.351562 147.425781 165.636719 " fill-opacity="1" fill-rule="nonzero"/><path fill="#5d574b" d="M 145.367188 164.613281 C 145.367188 164.894531 145.148438 165.125 144.875 165.125 C 144.601562 165.125 144.382812 164.894531 144.382812 164.613281 C 144.382812 164.328125 144.601562 164.101562 144.875 164.101562 C 145.148438 164.101562 145.367188 164.328125 145.367188 164.613281 " fill-opacity="1" fill-rule="nonzero"/><path fill="#5d574b" d="M 149.441406 160.566406 C 149.441406 160.847656 149.222656 161.078125 148.949219 161.078125 C 148.675781 161.078125 148.457031 160.847656 148.457031 160.566406 C 148.457031 160.28125 148.675781 160.054688 148.949219 160.054688 C 149.222656 160.054688 149.441406 160.28125 149.441406 160.566406 " fill-opacity="1" fill-rule="nonzero"/><path fill="#5d574b" d="M 145.292969 160.566406 C 145.292969 160.847656 145.070312 161.078125 144.796875 161.078125 C 144.527344 161.078125 144.304688 160.847656 144.304688 160.566406 C 144.304688 160.28125 144.527344 160.054688 144.796875 160.054688 C 145.070312 160.054688 145.292969 160.28125 145.292969 160.566406 " fill-opacity="1" fill-rule="nonzero"/><path fill="#5d574b" d="M 149.519531 164.613281 C 149.519531 164.894531 149.296875 165.125 149.027344 165.125 C 148.753906 165.125 148.53125 164.894531 148.53125 164.613281 C 148.53125 164.328125 148.753906 164.101562 149.027344 164.101562 C 149.296875 164.101562 149.519531 164.328125 149.519531 164.613281 " fill-opacity="1" fill-rule="nonzero"/><path fill="#877f6b" d="M 148.125 162.578125 C 148.125 163.234375 147.589844 163.765625 146.933594 163.765625 C 146.277344 163.765625 145.742188 163.234375 145.742188 162.578125 C 145.742188 161.921875 146.277344 161.390625 146.933594 161.390625 C 147.589844 161.390625 148.125 161.921875 148.125 162.578125 " fill-opacity="1" fill-rule="nonzero"/><g clip-path="url(#55f9885979)"><path fill="#3c444b" d="M 169.578125 162.578125 C 169.578125 165.191406 167.488281 167.308594 164.914062 167.308594 C 162.335938 167.308594 160.246094 165.191406 160.246094 162.578125 C 160.246094 159.964844 162.335938 157.847656 164.914062 157.847656 C 167.488281 157.847656 169.578125 159.964844 169.578125 162.578125 " fill-opacity="1" fill-rule="nonzero"/></g><path fill="#877f6b" d="M 169.011719 162.578125 C 169.011719 164.824219 167.175781 166.648438 164.914062 166.648438 C 162.652344 166.648438 160.816406 164.824219 160.816406 162.578125 C 160.816406 160.332031 162.652344 158.507812 164.914062 158.507812 C 167.175781 158.507812 169.011719 160.332031 169.011719 162.578125 " fill-opacity="1" fill-rule="nonzero"/><path fill="#5d574b" d="M 166.558594 162.46875 C 166.558594 163.402344 165.820312 164.160156 164.914062 164.160156 C 164.007812 164.160156 163.269531 163.402344 163.269531 162.46875 C 163.269531 161.53125 164.007812 160.773438 164.914062 160.773438 C 165.820312 160.773438 166.558594 161.53125 166.558594 162.46875 " fill-opacity="1" fill-rule="nonzero"/><path fill="#5d574b" d="M 162.570312 162.46875 C 162.570312 162.75 162.347656 162.980469 162.074219 162.980469 C 161.804688 162.980469 161.582031 162.75 161.582031 162.46875 C 161.582031 162.183594 161.804688 161.957031 162.074219 161.957031 C 162.347656 161.957031 162.570312 162.183594 162.570312 162.46875 " fill-opacity="1" fill-rule="nonzero"/><path fill="#5d574b" d="M 168.1875 162.46875 C 168.1875 162.75 167.96875 162.980469 167.695312 162.980469 C 167.421875 162.980469 167.203125 162.75 167.203125 162.46875 C 167.203125 162.183594 167.421875 161.957031 167.695312 161.957031 C 167.96875 161.957031 168.1875 162.183594 168.1875 162.46875 " fill-opacity="1" fill-rule="nonzero"/><path fill="#5d574b" d="M 165.40625 159.628906 C 165.40625 159.914062 165.1875 160.140625 164.914062 160.140625 C 164.640625 160.140625 164.421875 159.914062 164.421875 159.628906 C 164.421875 159.347656 164.640625 159.117188 164.914062 159.117188 C 165.1875 159.117188 165.40625 159.347656 165.40625 159.628906 " fill-opacity="1" fill-rule="nonzero"/><path fill="#5d574b" d="M 165.40625 165.527344 C 165.40625 165.808594 165.1875 166.035156 164.914062 166.035156 C 164.640625 166.035156 164.421875 165.808594 164.421875 165.527344 C 164.421875 165.242188 164.640625 165.015625 164.914062 165.015625 C 165.1875 165.015625 165.40625 165.242188 165.40625 165.527344 " fill-opacity="1" fill-rule="nonzero"/><path fill="#5d574b" d="M 163.347656 164.503906 C 163.347656 164.785156 163.125 165.015625 162.855469 165.015625 C 162.582031 165.015625 162.359375 164.785156 162.359375 164.503906 C 162.359375 164.21875 162.582031 163.992188 162.855469 163.992188 C 163.125 163.992188 163.347656 164.21875 163.347656 164.503906 " fill-opacity="1" fill-rule="nonzero"/><path fill="#5d574b" d="M 167.421875 160.453125 C 167.421875 160.738281 167.199219 160.964844 166.929688 160.964844 C 166.65625 160.964844 166.4375 160.738281 166.4375 160.453125 C 166.4375 160.171875 166.65625 159.945312 166.929688 159.945312 C 167.199219 159.945312 167.421875 160.171875 167.421875 160.453125 " fill-opacity="1" fill-rule="nonzero"/><path fill="#5d574b" d="M 163.269531 160.457031 C 163.269531 160.738281 163.050781 160.964844 162.777344 160.964844 C 162.503906 160.964844 162.285156 160.738281 162.285156 160.457031 C 162.285156 160.171875 162.503906 159.945312 162.777344 159.945312 C 163.050781 159.945312 163.269531 160.171875 163.269531 160.457031 " fill-opacity="1" fill-rule="nonzero"/><path fill="#5d574b" d="M 167.5 164.503906 C 167.5 164.785156 167.277344 165.015625 167.003906 165.015625 C 166.734375 165.015625 166.511719 164.785156 166.511719 164.503906 C 166.511719 164.21875 166.734375 163.992188 167.003906 163.992188 C 167.277344 163.992188 167.5 164.21875 167.5 164.503906 " fill-opacity="1" fill-rule="nonzero"/><path fill="#877f6b" d="M 166.105469 162.46875 C 166.105469 163.125 165.570312 163.65625 164.914062 163.65625 C 164.253906 163.65625 163.722656 163.125 163.722656 162.46875 C 163.722656 161.8125 164.253906 161.28125 164.914062 161.28125 C 165.570312 161.28125 166.105469 161.8125 166.105469 162.46875 " fill-opacity="1" fill-rule="nonzero"/><g clip-path="url(#8e0b97d454)"><path fill="#3c444b" d="M 179.984375 162.578125 C 179.984375 165.191406 177.894531 167.308594 175.316406 167.308594 C 172.738281 167.308594 170.652344 165.191406 170.652344 162.578125 C 170.652344 159.964844 172.738281 157.847656 175.316406 157.847656 C 177.894531 157.847656 179.984375 159.964844 179.984375 162.578125 " fill-opacity="1" fill-rule="nonzero"/></g><path fill="#877f6b" d="M 179.414062 162.578125 C 179.414062 164.824219 177.582031 166.648438 175.316406 166.648438 C 173.054688 166.648438 171.21875 164.824219 171.21875 162.578125 C 171.21875 160.332031 173.054688 158.507812 175.316406 158.507812 C 177.582031 158.507812 179.414062 160.332031 179.414062 162.578125 " fill-opacity="1" fill-rule="nonzero"/><path fill="#5d574b" d="M 176.960938 162.46875 C 176.960938 163.402344 176.226562 164.160156 175.316406 164.160156 C 174.410156 164.160156 173.675781 163.402344 173.675781 162.46875 C 173.675781 161.53125 174.410156 160.773438 175.316406 160.773438 C 176.226562 160.773438 176.960938 161.53125 176.960938 162.46875 " fill-opacity="1" fill-rule="nonzero"/><path fill="#5d574b" d="M 172.972656 162.46875 C 172.972656 162.75 172.753906 162.980469 172.480469 162.980469 C 172.207031 162.980469 171.988281 162.75 171.988281 162.46875 C 171.988281 162.183594 172.207031 161.957031 172.480469 161.957031 C 172.753906 161.957031 172.972656 162.183594 172.972656 162.46875 " fill-opacity="1" fill-rule="nonzero"/><path fill="#5d574b" d="M 178.59375 162.46875 C 178.59375 162.75 178.371094 162.980469 178.101562 162.980469 C 177.828125 162.980469 177.605469 162.75 177.605469 162.46875 C 177.605469 162.183594 177.828125 161.957031 178.101562 161.957031 C 178.371094 161.957031 178.59375 162.183594 178.59375 162.46875 " fill-opacity="1" fill-rule="nonzero"/><path fill="#5d574b" d="M 175.808594 159.628906 C 175.808594 159.914062 175.589844 160.140625 175.316406 160.140625 C 175.046875 160.140625 174.824219 159.914062 174.824219 159.628906 C 174.824219 159.347656 175.046875 159.117188 175.316406 159.117188 C 175.589844 159.117188 175.808594 159.347656 175.808594 159.628906 " fill-opacity="1" fill-rule="nonzero"/><path fill="#5d574b" d="M 175.808594 165.527344 C 175.808594 165.808594 175.589844 166.035156 175.316406 166.035156 C 175.046875 166.035156 174.824219 165.808594 174.824219 165.527344 C 174.824219 165.242188 175.046875 165.015625 175.316406 165.015625 C 175.589844 165.015625 175.808594 165.242188 175.808594 165.527344 " fill-opacity="1" fill-rule="nonzero"/><path fill="#5d574b" d="M 173.75 164.503906 C 173.75 164.785156 173.53125 165.015625 173.257812 165.015625 C 172.984375 165.015625 172.765625 164.785156 172.765625 164.503906 C 172.765625 164.21875 172.984375 163.992188 173.257812 163.992188 C 173.53125 163.992188 173.75 164.21875 173.75 164.503906 " fill-opacity="1" fill-rule="nonzero"/><path fill="#5d574b" d="M 177.824219 160.457031 C 177.824219 160.738281 177.605469 160.964844 177.332031 160.964844 C 177.058594 160.964844 176.839844 160.738281 176.839844 160.457031 C 176.839844 160.171875 177.058594 159.945312 177.332031 159.945312 C 177.605469 159.945312 177.824219 160.171875 177.824219 160.457031 " fill-opacity="1" fill-rule="nonzero"/><path fill="#5d574b" d="M 173.675781 160.457031 C 173.675781 160.738281 173.453125 160.964844 173.179688 160.964844 C 172.910156 160.964844 172.6875 160.738281 172.6875 160.457031 C 172.6875 160.171875 172.910156 159.945312 173.179688 159.945312 C 173.453125 159.945312 173.675781 160.171875 173.675781 160.457031 " fill-opacity="1" fill-rule="nonzero"/><path fill="#5d574b" d="M 177.902344 164.503906 C 177.902344 164.785156 177.683594 165.015625 177.410156 165.015625 C 177.136719 165.015625 176.917969 164.785156 176.917969 164.503906 C 176.917969 164.21875 177.136719 163.992188 177.410156 163.992188 C 177.683594 163.992188 177.902344 164.21875 177.902344 164.503906 " fill-opacity="1" fill-rule="nonzero"/><path fill="#877f6b" d="M 176.507812 162.46875 C 176.507812 163.125 175.976562 163.65625 175.316406 163.65625 C 174.660156 163.65625 174.125 163.125 174.125 162.46875 C 174.125 161.8125 174.660156 161.28125 175.316406 161.28125 C 175.976562 161.28125 176.507812 161.8125 176.507812 162.46875 " fill-opacity="1" fill-rule="nonzero"/><path fill="#d7c59e" d="M 191.5 157.351562 C 191.5 159.960938 189.410156 162.078125 186.832031 162.078125 C 184.257812 162.078125 182.167969 159.960938 182.167969 157.351562 C 182.167969 154.738281 184.257812 152.621094 186.832031 152.621094 C 189.410156 152.621094 191.5 154.738281 191.5 157.351562 " fill-opacity="1" fill-rule="nonzero"/><path fill="#877f6b" d="M 190.929688 157.351562 C 190.929688 159.597656 189.09375 161.417969 186.832031 161.417969 C 184.570312 161.417969 182.738281 159.597656 182.738281 157.351562 C 182.738281 155.101562 184.570312 153.28125 186.832031 153.28125 C 189.09375 153.28125 190.929688 155.101562 190.929688 157.351562 " fill-opacity="1" fill-rule="nonzero"/><path fill="#5d574b" d="M 188.476562 157.238281 C 188.476562 158.175781 187.742188 158.933594 186.832031 158.933594 C 185.925781 158.933594 185.191406 158.175781 185.191406 157.238281 C 185.191406 156.304688 185.925781 155.546875 186.832031 155.546875 C 187.742188 155.546875 188.476562 156.304688 188.476562 157.238281 " fill-opacity="1" fill-rule="nonzero"/><path fill="#5d574b" d="M 184.488281 157.242188 C 184.488281 157.523438 184.269531 157.75 183.996094 157.75 C 183.722656 157.75 183.503906 157.523438 183.503906 157.242188 C 183.503906 156.957031 183.722656 156.730469 183.996094 156.730469 C 184.269531 156.730469 184.488281 156.957031 184.488281 157.242188 " fill-opacity="1" fill-rule="nonzero"/><path fill="#5d574b" d="M 190.109375 157.242188 C 190.109375 157.523438 189.886719 157.75 189.617188 157.75 C 189.34375 157.75 189.121094 157.523438 189.121094 157.242188 C 189.121094 156.957031 189.34375 156.730469 189.617188 156.730469 C 189.886719 156.730469 190.109375 156.957031 190.109375 157.242188 " fill-opacity="1" fill-rule="nonzero"/><path fill="#5d574b" d="M 187.328125 154.402344 C 187.328125 154.683594 187.105469 154.914062 186.832031 154.914062 C 186.5625 154.914062 186.339844 154.683594 186.339844 154.402344 C 186.339844 154.121094 186.5625 153.890625 186.832031 153.890625 C 187.105469 153.890625 187.328125 154.121094 187.328125 154.402344 " fill-opacity="1" fill-rule="nonzero"/><path fill="#5d574b" d="M 187.328125 160.296875 C 187.328125 160.578125 187.105469 160.808594 186.832031 160.808594 C 186.5625 160.808594 186.339844 160.578125 186.339844 160.296875 C 186.339844 160.015625 186.5625 159.785156 186.832031 159.785156 C 187.105469 159.785156 187.328125 160.015625 187.328125 160.296875 " fill-opacity="1" fill-rule="nonzero"/><path fill="#5d574b" d="M 185.265625 159.273438 C 185.265625 159.558594 185.046875 159.785156 184.773438 159.785156 C 184.5 159.785156 184.28125 159.558594 184.28125 159.273438 C 184.28125 158.992188 184.5 158.761719 184.773438 158.761719 C 185.046875 158.761719 185.265625 158.992188 185.265625 159.273438 " fill-opacity="1" fill-rule="nonzero"/><path fill="#5d574b" d="M 189.34375 155.226562 C 189.34375 155.511719 189.121094 155.738281 188.847656 155.738281 C 188.578125 155.738281 188.355469 155.511719 188.355469 155.226562 C 188.355469 154.945312 188.578125 154.714844 188.847656 154.714844 C 189.121094 154.714844 189.34375 154.945312 189.34375 155.226562 " fill-opacity="1" fill-rule="nonzero"/><path fill="#5d574b" d="M 185.191406 155.226562 C 185.191406 155.511719 184.96875 155.738281 184.699219 155.738281 C 184.425781 155.738281 184.203125 155.511719 184.203125 155.226562 C 184.203125 154.945312 184.425781 154.714844 184.699219 154.714844 C 184.96875 154.714844 185.191406 154.945312 185.191406 155.226562 " fill-opacity="1" fill-rule="nonzero"/><path fill="#5d574b" d="M 189.417969 159.273438 C 189.417969 159.558594 189.199219 159.785156 188.925781 159.785156 C 188.652344 159.785156 188.433594 159.558594 188.433594 159.273438 C 188.433594 158.992188 188.652344 158.761719 188.925781 158.761719 C 189.199219 158.761719 189.417969 158.992188 189.417969 159.273438 " fill-opacity="1" fill-rule="nonzero"/><path fill="#d7c59e" d="M 188.023438 157.238281 C 188.023438 157.894531 187.492188 158.425781 186.832031 158.425781 C 186.175781 158.425781 185.640625 157.894531 185.640625 157.238281 C 185.640625 156.585938 186.175781 156.050781 186.832031 156.050781 C 187.492188 156.050781 188.023438 156.585938 188.023438 157.238281 " fill-opacity="1" fill-rule="nonzero"/><path fill="#d7c59e" d="M 99.570312 157.351562 C 99.570312 159.960938 97.484375 162.078125 94.90625 162.078125 C 92.328125 162.078125 90.238281 159.960938 90.238281 157.351562 C 90.238281 154.738281 92.328125 152.621094 94.90625 152.621094 C 97.484375 152.621094 99.570312 154.738281 99.570312 157.351562 " fill-opacity="1" fill-rule="nonzero"/><path fill="#877f6b" d="M 99.003906 157.351562 C 99.003906 159.597656 97.167969 161.417969 94.90625 161.417969 C 92.644531 161.417969 90.808594 159.597656 90.808594 157.351562 C 90.808594 155.101562 92.644531 153.28125 94.90625 153.28125 C 97.167969 153.28125 99.003906 155.101562 99.003906 157.351562 " fill-opacity="1" fill-rule="nonzero"/><path fill="#5d574b" d="M 96.546875 157.242188 C 96.546875 158.175781 95.8125 158.933594 94.90625 158.933594 C 94 158.933594 93.261719 158.175781 93.261719 157.242188 C 93.261719 156.304688 94 155.546875 94.90625 155.546875 C 95.8125 155.546875 96.546875 156.304688 96.546875 157.242188 " fill-opacity="1" fill-rule="nonzero"/><path fill="#5d574b" d="M 92.5625 157.242188 C 92.5625 157.523438 92.339844 157.75 92.070312 157.75 C 91.796875 157.75 91.574219 157.523438 91.574219 157.242188 C 91.574219 156.957031 91.796875 156.730469 92.070312 156.730469 C 92.339844 156.730469 92.5625 156.957031 92.5625 157.242188 " fill-opacity="1" fill-rule="nonzero"/><path fill="#5d574b" d="M 98.179688 157.242188 C 98.179688 157.523438 97.960938 157.75 97.6875 157.75 C 97.414062 157.75 97.195312 157.523438 97.195312 157.242188 C 97.195312 156.957031 97.414062 156.730469 97.6875 156.730469 C 97.960938 156.730469 98.179688 156.957031 98.179688 157.242188 " fill-opacity="1" fill-rule="nonzero"/><path fill="#5d574b" d="M 95.398438 154.402344 C 95.398438 154.683594 95.179688 154.914062 94.90625 154.914062 C 94.632812 154.914062 94.414062 154.683594 94.414062 154.402344 C 94.414062 154.121094 94.632812 153.890625 94.90625 153.890625 C 95.179688 153.890625 95.398438 154.121094 95.398438 154.402344 " fill-opacity="1" fill-rule="nonzero"/><path fill="#5d574b" d="M 95.398438 160.296875 C 95.398438 160.578125 95.179688 160.808594 94.90625 160.808594 C 94.632812 160.808594 94.414062 160.578125 94.414062 160.296875 C 94.414062 160.015625 94.632812 159.785156 94.90625 159.785156 C 95.179688 159.785156 95.398438 160.015625 95.398438 160.296875 " fill-opacity="1" fill-rule="nonzero"/><path fill="#5d574b" d="M 93.339844 159.273438 C 93.339844 159.558594 93.117188 159.785156 92.847656 159.785156 C 92.574219 159.785156 92.351562 159.558594 92.351562 159.273438 C 92.351562 158.992188 92.574219 158.761719 92.847656 158.761719 C 93.117188 158.761719 93.339844 158.992188 93.339844 159.273438 " fill-opacity="1" fill-rule="nonzero"/><path fill="#5d574b" d="M 97.414062 155.226562 C 97.414062 155.511719 97.191406 155.738281 96.921875 155.738281 C 96.648438 155.738281 96.429688 155.511719 96.429688 155.226562 C 96.429688 154.945312 96.648438 154.714844 96.921875 154.714844 C 97.191406 154.714844 97.414062 154.945312 97.414062 155.226562 " fill-opacity="1" fill-rule="nonzero"/><path fill="#5d574b" d="M 93.261719 155.226562 C 93.261719 155.511719 93.042969 155.738281 92.769531 155.738281 C 92.496094 155.738281 92.277344 155.511719 92.277344 155.226562 C 92.277344 154.945312 92.496094 154.714844 92.769531 154.714844 C 93.042969 154.714844 93.261719 154.945312 93.261719 155.226562 " fill-opacity="1" fill-rule="nonzero"/><path fill="#5d574b" d="M 97.492188 159.273438 C 97.492188 159.558594 97.269531 159.785156 96.996094 159.785156 C 96.726562 159.785156 96.503906 159.558594 96.503906 159.273438 C 96.503906 158.992188 96.726562 158.761719 96.996094 158.761719 C 97.269531 158.761719 97.492188 158.992188 97.492188 159.273438 " fill-opacity="1" fill-rule="nonzero"/><path fill="#d7c59e" d="M 96.097656 157.242188 C 96.097656 157.894531 95.5625 158.425781 94.90625 158.425781 C 94.246094 158.425781 93.714844 157.894531 93.714844 157.242188 C 93.714844 156.585938 94.246094 156.050781 94.90625 156.050781 C 95.5625 156.050781 96.097656 156.585938 96.097656 157.242188 " fill-opacity="1" fill-rule="nonzero"/><path fill="#d7c59e" d="M 142.8125 155.476562 C 142.8125 156.6875 141.832031 157.671875 140.625 157.671875 C 139.417969 157.671875 138.441406 156.6875 138.441406 155.476562 C 138.441406 154.265625 139.417969 153.28125 140.625 153.28125 C 141.832031 153.28125 142.8125 154.265625 142.8125 155.476562 " fill-opacity="1" fill-rule="nonzero"/><path fill="#877f6b" d="M 142.277344 155.476562 C 142.277344 156.390625 141.539062 157.132812 140.625 157.132812 C 139.714844 157.132812 138.976562 156.390625 138.976562 155.476562 C 138.976562 154.558594 139.714844 153.816406 140.625 153.816406 C 141.539062 153.816406 142.277344 154.558594 142.277344 155.476562 " fill-opacity="1" fill-rule="nonzero"/><path fill="#d7c59e" d="M 141.183594 155.425781 C 141.183594 155.730469 140.933594 155.976562 140.625 155.976562 C 140.320312 155.976562 140.070312 155.730469 140.070312 155.425781 C 140.070312 155.121094 140.320312 154.875 140.625 154.875 C 140.933594 154.875 141.183594 155.121094 141.183594 155.425781 " fill-opacity="1" fill-rule="nonzero"/><path fill="#d7c59e" d="M 157.882812 155.546875 C 157.882812 156.757812 156.90625 157.742188 155.699219 157.742188 C 154.492188 157.742188 153.511719 156.757812 153.511719 155.546875 C 153.511719 154.335938 154.492188 153.351562 155.699219 153.351562 C 156.90625 153.351562 157.882812 154.335938 157.882812 155.546875 " fill-opacity="1" fill-rule="nonzero"/><path fill="#877f6b" d="M 157.347656 155.546875 C 157.347656 156.460938 156.609375 157.203125 155.699219 157.203125 C 154.785156 157.203125 154.046875 156.460938 154.046875 155.546875 C 154.046875 154.632812 154.785156 153.890625 155.699219 153.890625 C 156.609375 153.890625 157.347656 154.632812 157.347656 155.546875 " fill-opacity="1" fill-rule="nonzero"/><path fill="#d7c59e" d="M 156.253906 155.496094 C 156.253906 155.800781 156.003906 156.046875 155.699219 156.046875 C 155.390625 156.046875 155.140625 155.800781 155.140625 155.496094 C 155.140625 155.191406 155.390625 154.945312 155.699219 154.945312 C 156.003906 154.945312 156.253906 155.191406 156.253906 155.496094 " fill-opacity="1" fill-rule="nonzero"/><g clip-path="url(#2906b8eab4)"><path fill="#afa285" d="M 89.835938 157.835938 L 87.414062 157.835938 L 87.414062 150.394531 L 89.835938 150.394531 L 89.835938 157.835938 " fill-opacity="1" fill-rule="nonzero"/></g><g clip-path="url(#cba6830693)"><path fill="#afa285" d="M 194.269531 155.546875 L 191.394531 155.546875 L 191.394531 150.394531 L 194.269531 150.394531 L 194.269531 155.546875 " fill-opacity="1" fill-rule="nonzero"/></g></svg>