<svg xmlns="http://www.w3.org/2000/svg" xmlns:xlink="http://www.w3.org/1999/xlink" width="350" zoomAndPan="magnify" viewBox="0 0 262.5 262.500001" height="350" preserveAspectRatio="xMidYMid meet" version="1.0"><defs><clipPath id="24473a6826"><path d="M 113 93 L 149 93 L 149 141.472656 L 113 141.472656 Z M 113 93 " clip-rule="nonzero"/></clipPath></defs><path fill="#000000" d="M 130.984375 120.257812 C 131.582031 120.257812 132.171875 120.199219 132.757812 120.085938 C 133.34375 119.96875 133.910156 119.796875 134.460938 119.570312 C 135.011719 119.34375 135.535156 119.0625 136.03125 118.734375 C 136.527344 118.402344 136.984375 118.03125 137.40625 117.609375 C 137.828125 117.191406 138.203125 116.734375 138.535156 116.238281 C 138.867188 115.746094 139.144531 115.222656 139.375 114.675781 C 139.601562 114.125 139.773438 113.5625 139.890625 112.980469 C 140.007812 112.394531 140.066406 111.808594 140.066406 111.214844 C 140.066406 110.621094 140.007812 110.03125 139.890625 109.449219 C 139.773438 108.867188 139.601562 108.300781 139.375 107.753906 C 139.144531 107.203125 138.867188 106.683594 138.535156 106.191406 C 138.203125 105.695312 137.828125 105.238281 137.40625 104.820312 C 136.984375 104.398438 136.527344 104.023438 136.03125 103.695312 C 135.535156 103.363281 135.011719 103.085938 134.460938 102.859375 C 133.910156 102.632812 133.34375 102.460938 132.757812 102.34375 C 132.171875 102.226562 131.582031 102.171875 130.984375 102.171875 C 130.390625 102.171875 129.800781 102.226562 129.214844 102.34375 C 128.628906 102.460938 128.0625 102.632812 127.511719 102.859375 C 126.960938 103.085938 126.4375 103.363281 125.941406 103.695312 C 125.445312 104.023438 124.988281 104.398438 124.566406 104.820312 C 124.144531 105.238281 123.769531 105.695312 123.4375 106.191406 C 123.105469 106.683594 122.824219 107.203125 122.597656 107.753906 C 122.371094 108.300781 122.199219 108.867188 122.082031 109.449219 C 121.964844 110.03125 121.90625 110.621094 121.90625 111.214844 C 121.90625 111.808594 121.96875 112.394531 122.085938 112.976562 C 122.199219 113.558594 122.375 114.125 122.601562 114.671875 C 122.832031 115.222656 123.109375 115.742188 123.441406 116.234375 C 123.773438 116.726562 124.148438 117.183594 124.570312 117.605469 C 124.992188 118.023438 125.449219 118.398438 125.945312 118.730469 C 126.441406 119.058594 126.964844 119.335938 127.515625 119.566406 C 128.066406 119.792969 128.632812 119.964844 129.214844 120.082031 C 129.800781 120.199219 130.390625 120.257812 130.984375 120.257812 Z M 130.984375 103.777344 C 131.476562 103.777344 131.964844 103.828125 132.449219 103.921875 C 132.929688 104.019531 133.398438 104.160156 133.851562 104.347656 C 134.308594 104.535156 134.738281 104.765625 135.148438 105.035156 C 135.554688 105.308594 135.933594 105.617188 136.28125 105.964844 C 136.628906 106.308594 136.941406 106.6875 137.214844 107.09375 C 137.488281 107.5 137.71875 107.933594 137.90625 108.382812 C 138.09375 108.835938 138.234375 109.304688 138.332031 109.785156 C 138.429688 110.265625 138.476562 110.75 138.476562 111.238281 C 138.476562 111.730469 138.429688 112.214844 138.332031 112.695312 C 138.234375 113.175781 138.09375 113.640625 137.90625 114.09375 C 137.71875 114.546875 137.488281 114.976562 137.214844 115.382812 C 136.941406 115.792969 136.628906 116.167969 136.28125 116.515625 C 135.933594 116.859375 135.554688 117.171875 135.148438 117.441406 C 134.738281 117.714844 134.308594 117.945312 133.851562 118.132812 C 133.398438 118.320312 132.929688 118.460938 132.449219 118.554688 C 131.964844 118.652344 131.476562 118.699219 130.984375 118.699219 C 130.496094 118.699219 130.007812 118.652344 129.523438 118.554688 C 129.042969 118.460938 128.574219 118.320312 128.121094 118.132812 C 127.664062 117.945312 127.234375 117.714844 126.824219 117.441406 C 126.417969 117.171875 126.039062 116.859375 125.691406 116.515625 C 125.34375 116.167969 125.03125 115.792969 124.757812 115.382812 C 124.484375 114.976562 124.253906 114.546875 124.066406 114.09375 C 123.878906 113.640625 123.734375 113.175781 123.640625 112.695312 C 123.542969 112.214844 123.496094 111.730469 123.496094 111.238281 C 123.496094 110.75 123.542969 110.265625 123.640625 109.785156 C 123.734375 109.304688 123.878906 108.835938 124.066406 108.382812 C 124.253906 107.933594 124.484375 107.5 124.757812 107.09375 C 125.03125 106.6875 125.34375 106.308594 125.691406 105.964844 C 126.039062 105.617188 126.417969 105.308594 126.824219 105.035156 C 127.234375 104.765625 127.664062 104.535156 128.121094 104.347656 C 128.574219 104.160156 129.042969 104.019531 129.523438 103.921875 C 130.007812 103.828125 130.496094 103.777344 130.984375 103.777344 Z M 130.984375 103.777344 " fill-opacity="1" fill-rule="nonzero"/><g clip-path="url(#24473a6826)"><path fill="#000000" d="M 130.328125 141.132812 C 130.40625 141.234375 130.503906 141.3125 130.621094 141.367188 C 130.734375 141.425781 130.859375 141.453125 130.984375 141.453125 C 131.113281 141.453125 131.238281 141.425781 131.351562 141.367188 C 131.46875 141.3125 131.566406 141.234375 131.644531 141.132812 L 146.597656 119.917969 L 146.648438 119.84375 C 146.835938 119.507812 147.011719 119.164062 147.175781 118.816406 C 147.339844 118.464844 147.492188 118.113281 147.636719 117.753906 C 147.777344 117.394531 147.90625 117.03125 148.023438 116.664062 C 148.144531 116.296875 148.25 115.925781 148.34375 115.554688 C 148.4375 115.179688 148.519531 114.804688 148.589844 114.421875 C 148.65625 114.042969 148.714844 113.664062 148.757812 113.28125 C 148.804688 112.898438 148.835938 112.515625 148.855469 112.128906 C 148.875 111.742188 148.882812 111.359375 148.875 110.972656 C 148.871094 110.589844 148.851562 110.203125 148.824219 109.820312 C 148.792969 109.433594 148.75 109.050781 148.691406 108.671875 C 148.636719 108.289062 148.570312 107.910156 148.488281 107.53125 C 148.410156 107.15625 148.316406 106.78125 148.210938 106.410156 C 148.109375 106.039062 147.992188 105.671875 147.863281 105.308594 C 147.734375 104.945312 147.59375 104.585938 147.441406 104.230469 C 147.289062 103.875 147.128906 103.527344 146.953125 103.183594 C 146.777344 102.839844 146.59375 102.5 146.394531 102.167969 C 146.199219 101.835938 145.992188 101.511719 145.773438 101.195312 C 145.554688 100.875 145.328125 100.5625 145.089844 100.261719 C 144.851562 99.957031 144.605469 99.660156 144.347656 99.371094 C 144.089844 99.085938 143.824219 98.804688 143.546875 98.535156 C 143.273438 98.265625 142.988281 98.003906 142.695312 97.75 C 142.402344 97.5 142.101562 97.257812 141.792969 97.023438 C 141.484375 96.789062 141.171875 96.566406 140.847656 96.355469 C 140.523438 96.144531 140.195312 95.941406 139.859375 95.75 C 139.523438 95.558594 139.179688 95.378906 138.832031 95.210938 C 138.484375 95.039062 138.132812 94.882812 137.773438 94.738281 C 137.417969 94.589844 137.054688 94.457031 136.6875 94.332031 C 136.320312 94.210938 135.949219 94.097656 135.574219 94 C 135.203125 93.902344 134.824219 93.816406 134.445312 93.742188 C 134.066406 93.664062 133.683594 93.605469 133.300781 93.554688 C 132.917969 93.503906 132.53125 93.464844 132.144531 93.441406 C 131.757812 93.417969 131.375 93.402344 130.984375 93.402344 C 130.597656 93.402344 130.210938 93.417969 129.828125 93.441406 C 129.441406 93.464844 129.054688 93.503906 128.671875 93.554688 C 128.289062 93.605469 127.90625 93.664062 127.527344 93.742188 C 127.148438 93.816406 126.769531 93.902344 126.394531 94 C 126.023438 94.097656 125.652344 94.210938 125.285156 94.332031 C 124.917969 94.457031 124.554688 94.589844 124.199219 94.738281 C 123.839844 94.882812 123.488281 95.039062 123.140625 95.210938 C 122.792969 95.378906 122.449219 95.558594 122.113281 95.75 C 121.777344 95.941406 121.449219 96.144531 121.125 96.355469 C 120.800781 96.566406 120.488281 96.789062 120.179688 97.023438 C 119.871094 97.257812 119.570312 97.5 119.277344 97.75 C 118.984375 98.003906 118.699219 98.265625 118.425781 98.535156 C 118.148438 98.804688 117.882812 99.085938 117.625 99.371094 C 117.367188 99.660156 117.121094 99.957031 116.882812 100.261719 C 116.644531 100.5625 116.417969 100.875 116.199219 101.195312 C 115.980469 101.511719 115.773438 101.835938 115.578125 102.167969 C 115.378906 102.5 115.195312 102.839844 115.019531 103.183594 C 114.84375 103.527344 114.683594 103.875 114.53125 104.230469 C 114.378906 104.585938 114.238281 104.945312 114.109375 105.308594 C 113.980469 105.671875 113.863281 106.039062 113.757812 106.410156 C 113.65625 106.78125 113.5625 107.15625 113.484375 107.53125 C 113.402344 107.910156 113.335938 108.289062 113.277344 108.671875 C 113.222656 109.050781 113.179688 109.433594 113.148438 109.820312 C 113.121094 110.203125 113.101562 110.589844 113.097656 110.972656 C 113.089844 111.359375 113.097656 111.742188 113.117188 112.128906 C 113.136719 112.515625 113.167969 112.898438 113.214844 113.28125 C 113.257812 113.664062 113.316406 114.042969 113.382812 114.421875 C 113.453125 114.804688 113.535156 115.179688 113.628906 115.554688 C 113.722656 115.925781 113.828125 116.296875 113.945312 116.664062 C 114.066406 117.03125 114.195312 117.394531 114.335938 117.753906 C 114.476562 118.113281 114.632812 118.464844 114.796875 118.816406 C 114.960938 119.164062 115.136719 119.507812 115.324219 119.84375 L 115.375 119.917969 Z M 114.699219 111.214844 C 114.699219 110.597656 114.734375 109.984375 114.804688 109.371094 C 114.875 108.757812 114.980469 108.152344 115.121094 107.550781 C 115.261719 106.949219 115.433594 106.359375 115.640625 105.78125 C 115.847656 105.199219 116.089844 104.632812 116.363281 104.078125 C 116.632812 103.523438 116.9375 102.988281 117.269531 102.46875 C 117.605469 101.949219 117.96875 101.453125 118.359375 100.972656 C 118.75 100.496094 119.164062 100.039062 119.609375 99.609375 C 120.050781 99.179688 120.515625 98.777344 121.003906 98.398438 C 121.496094 98.019531 122.003906 97.671875 122.53125 97.351562 C 123.0625 97.03125 123.605469 96.742188 124.167969 96.484375 C 124.730469 96.226562 125.304688 96 125.894531 95.808594 C 126.480469 95.613281 127.078125 95.457031 127.683594 95.332031 C 128.289062 95.207031 128.902344 95.117188 129.519531 95.058594 C 130.132812 95.003906 130.753906 94.984375 131.371094 95 C 131.988281 95.011719 132.605469 95.0625 133.21875 95.148438 C 133.832031 95.230469 134.4375 95.351562 135.035156 95.503906 C 135.636719 95.65625 136.226562 95.84375 136.804688 96.066406 C 137.382812 96.285156 137.945312 96.535156 138.492188 96.820312 C 139.042969 97.105469 139.574219 97.417969 140.085938 97.765625 C 140.601562 98.109375 141.09375 98.480469 141.5625 98.882812 C 142.035156 99.28125 142.480469 99.707031 142.902344 100.160156 C 143.324219 100.609375 143.71875 101.082031 144.085938 101.578125 C 144.453125 102.074219 144.792969 102.589844 145.101562 103.125 C 145.410156 103.660156 145.6875 104.207031 145.933594 104.773438 C 146.179688 105.339844 146.390625 105.917969 146.570312 106.507812 C 146.75 107.097656 146.894531 107.695312 147.007812 108.300781 C 147.117188 108.910156 147.195312 109.519531 147.234375 110.132812 C 147.277344 110.75 147.285156 111.363281 147.253906 111.980469 C 147.226562 112.597656 147.160156 113.207031 147.0625 113.816406 C 146.960938 114.425781 146.828125 115.027344 146.660156 115.621094 C 146.492188 116.214844 146.292969 116.796875 146.058594 117.367188 C 145.824219 117.9375 145.554688 118.492188 145.257812 119.03125 L 130.984375 139.273438 L 116.714844 119.03125 C 115.371094 116.597656 114.699219 113.992188 114.699219 111.214844 Z M 114.699219 111.214844 " fill-opacity="1" fill-rule="nonzero"/></g></svg>