<svg xmlns="http://www.w3.org/2000/svg" xmlns:xlink="http://www.w3.org/1999/xlink" width="350" zoomAndPan="magnify" viewBox="0 0 262.5 262.500001" height="350" preserveAspectRatio="xMidYMid meet" version="1.0"><defs><clipPath id="f7ca077e80"><path d="M 0 177 L 127 177 L 127 262 L 0 262 Z M 0 177 " clip-rule="nonzero"/></clipPath><clipPath id="eee4b3853b"><path d="M 189 165 L 262 165 L 262 259 L 189 259 Z M 189 165 " clip-rule="nonzero"/></clipPath><clipPath id="272cb3edd8"><path d="M 109 85 L 262 85 L 262 179 L 109 179 Z M 109 85 " clip-rule="nonzero"/></clipPath><clipPath id="22044eff46"><path d="M 174 151 L 262 151 L 262 193 L 174 193 Z M 174 151 " clip-rule="nonzero"/></clipPath><clipPath id="206a256bdf"><path d="M 82 0.03125 L 194 0.03125 L 194 182 L 82 182 Z M 82 0.03125 " clip-rule="nonzero"/></clipPath><clipPath id="18cd26ffc0"><path d="M 193.398438 56.644531 C 193.398438 87.394531 137.703125 159.492188 137.703125 181.730469 C 137.703125 159.507812 82.003906 87.398438 82.003906 56.644531 C 82.003906 25.894531 106.941406 0.964844 137.703125 0.964844 C 168.464844 0.964844 193.398438 25.894531 193.398438 56.644531 Z M 193.398438 56.644531 " clip-rule="nonzero"/></clipPath><linearGradient x1="1587.09998" gradientTransform="matrix(0.386007, 0, 0, 0.385892, -474.934144, -565.528842)" y1="1468.01006" x2="1587.09998" gradientUnits="userSpaceOnUse" y2="1936.440118" id="80e8263ab1"><stop stop-opacity="1" stop-color="rgb(93.60199%, 0%, 0%)" offset="0"/><stop stop-opacity="1" stop-color="rgb(93.464661%, 0%, 0%)" offset="0.015625"/><stop stop-opacity="1" stop-color="rgb(93.190002%, 0%, 0%)" offset="0.03125"/><stop stop-opacity="1" stop-color="rgb(92.915344%, 0%, 0%)" offset="0.046875"/><stop stop-opacity="1" stop-color="rgb(92.640686%, 0%, 0%)" offset="0.0625"/><stop stop-opacity="1" stop-color="rgb(92.366028%, 0%, 0%)" offset="0.078125"/><stop stop-opacity="1" stop-color="rgb(92.09137%, 0%, 0%)" offset="0.09375"/><stop stop-opacity="1" stop-color="rgb(91.816711%, 0%, 0%)" offset="0.109375"/><stop stop-opacity="1" stop-color="rgb(91.542053%, 0%, 0%)" offset="0.125"/><stop stop-opacity="1" stop-color="rgb(91.267395%, 0%, 0%)" offset="0.140625"/><stop stop-opacity="1" stop-color="rgb(90.992737%, 0%, 0%)" offset="0.15625"/><stop stop-opacity="1" stop-color="rgb(90.718079%, 0%, 0%)" offset="0.171875"/><stop stop-opacity="1" stop-color="rgb(90.44342%, 0%, 0%)" offset="0.1875"/><stop stop-opacity="1" stop-color="rgb(90.168762%, 0%, 0%)" offset="0.203125"/><stop stop-opacity="1" stop-color="rgb(89.894104%, 0%, 0%)" offset="0.21875"/><stop stop-opacity="1" stop-color="rgb(89.619446%, 0%, 0%)" offset="0.234375"/><stop stop-opacity="1" stop-color="rgb(89.344788%, 0%, 0%)" offset="0.25"/><stop stop-opacity="1" stop-color="rgb(89.070129%, 0%, 0%)" offset="0.265625"/><stop stop-opacity="1" stop-color="rgb(88.795471%, 0%, 0%)" offset="0.28125"/><stop stop-opacity="1" stop-color="rgb(88.520813%, 0%, 0%)" offset="0.296875"/><stop stop-opacity="1" stop-color="rgb(88.246155%, 0%, 0%)" offset="0.3125"/><stop stop-opacity="1" stop-color="rgb(87.971497%, 0%, 0%)" offset="0.328125"/><stop stop-opacity="1" stop-color="rgb(87.696838%, 0%, 0%)" offset="0.34375"/><stop stop-opacity="1" stop-color="rgb(87.42218%, 0%, 0%)" offset="0.359375"/><stop stop-opacity="1" stop-color="rgb(87.147522%, 0%, 0%)" offset="0.375"/><stop stop-opacity="1" stop-color="rgb(86.872864%, 0%, 0%)" offset="0.390625"/><stop stop-opacity="1" stop-color="rgb(86.598206%, 0%, 0%)" offset="0.40625"/><stop stop-opacity="1" stop-color="rgb(86.323547%, 0%, 0%)" offset="0.421875"/><stop stop-opacity="1" stop-color="rgb(86.048889%, 0%, 0%)" offset="0.4375"/><stop stop-opacity="1" stop-color="rgb(85.775757%, 0%, 0%)" offset="0.453125"/><stop stop-opacity="1" stop-color="rgb(85.501099%, 0%, 0%)" offset="0.46875"/><stop stop-opacity="1" stop-color="rgb(85.22644%, 0%, 0%)" offset="0.484375"/><stop stop-opacity="1" stop-color="rgb(84.951782%, 0%, 0%)" offset="0.5"/><stop stop-opacity="1" stop-color="rgb(84.677124%, 0%, 0%)" offset="0.515625"/><stop stop-opacity="1" stop-color="rgb(84.402466%, 0%, 0%)" offset="0.53125"/><stop stop-opacity="1" stop-color="rgb(84.127808%, 0%, 0%)" offset="0.546875"/><stop stop-opacity="1" stop-color="rgb(83.853149%, 0%, 0%)" offset="0.5625"/><stop stop-opacity="1" stop-color="rgb(83.578491%, 0%, 0%)" offset="0.578125"/><stop stop-opacity="1" stop-color="rgb(83.303833%, 0%, 0%)" offset="0.59375"/><stop stop-opacity="1" stop-color="rgb(83.029175%, 0%, 0%)" offset="0.609375"/><stop stop-opacity="1" stop-color="rgb(82.754517%, 0%, 0%)" offset="0.625"/><stop stop-opacity="1" stop-color="rgb(82.479858%, 0%, 0%)" offset="0.640625"/><stop stop-opacity="1" stop-color="rgb(82.2052%, 0%, 0%)" offset="0.65625"/><stop stop-opacity="1" stop-color="rgb(81.930542%, 0%, 0%)" offset="0.671875"/><stop stop-opacity="1" stop-color="rgb(81.655884%, 0%, 0%)" offset="0.6875"/><stop stop-opacity="1" stop-color="rgb(81.381226%, 0%, 0%)" offset="0.703125"/><stop stop-opacity="1" stop-color="rgb(81.106567%, 0%, 0%)" offset="0.71875"/><stop stop-opacity="1" stop-color="rgb(80.831909%, 0%, 0%)" offset="0.734375"/><stop stop-opacity="1" stop-color="rgb(80.557251%, 0%, 0%)" offset="0.75"/><stop stop-opacity="1" stop-color="rgb(80.282593%, 0%, 0%)" offset="0.765625"/><stop stop-opacity="1" stop-color="rgb(80.007935%, 0%, 0%)" offset="0.78125"/><stop stop-opacity="1" stop-color="rgb(79.733276%, 0%, 0%)" offset="0.796875"/><stop stop-opacity="1" stop-color="rgb(79.458618%, 0%, 0%)" offset="0.8125"/><stop stop-opacity="1" stop-color="rgb(79.18396%, 0%, 0%)" offset="0.828125"/><stop stop-opacity="1" stop-color="rgb(78.909302%, 0%, 0%)" offset="0.84375"/><stop stop-opacity="1" stop-color="rgb(78.585815%, 0%, 0%)" offset="0.875"/><stop stop-opacity="1" stop-color="rgb(78.399658%, 0%, 0%)" offset="1"/></linearGradient><clipPath id="c4f971b5fe"><path d="M 80 0.03125 L 195 0.03125 L 195 184 L 80 184 Z M 80 0.03125 " clip-rule="nonzero"/></clipPath></defs><path fill="#7fc94c" d="M -116.59375 115.433594 L -50.722656 181.554688 L 46.730469 163.414062 L -19.144531 97.292969 Z M -116.59375 115.433594 " fill-opacity="1" fill-rule="nonzero"/><path fill="#f9f792" d="M -50.433594 181.496094 L -36.285156 195.699219 L 60.859375 177.613281 L 46.710938 163.410156 Z M -50.433594 181.496094 " fill-opacity="1" fill-rule="nonzero"/><g clip-path="url(#f7ca077e80)"><path fill="#4ca0c9" d="M -36.558594 195.769531 L 29.464844 262.046875 L 126.914062 243.90625 L 60.890625 177.628906 Z M -36.558594 195.769531 " fill-opacity="1" fill-rule="nonzero"/></g><path fill="#7fc94c" d="M -19.515625 97.289062 L 46.355469 163.410156 L 176.722656 178.3125 L 110.851562 112.191406 Z M -19.515625 97.289062 " fill-opacity="1" fill-rule="nonzero"/><path fill="#f9f792" d="M 46.351562 163.40625 L 60.5 177.609375 L 106.945312 182.917969 L 172.96875 249.191406 L 210.855469 253.523438 L 144.832031 187.246094 L 190.867188 192.511719 L 176.71875 178.308594 Z M 46.351562 163.40625 " fill-opacity="1" fill-rule="nonzero"/><path fill="#c9a14c" d="M 144.867188 187.269531 L 210.890625 253.542969 L 256.925781 258.804688 L 190.902344 192.53125 Z M 144.867188 187.269531 " fill-opacity="1" fill-rule="nonzero"/><path fill="#4ca0c9" d="M 60.519531 177.628906 L 126.542969 243.902344 L 172.988281 249.210938 L 106.960938 182.9375 Z M 60.519531 177.628906 " fill-opacity="1" fill-rule="nonzero"/><g clip-path="url(#eee4b3853b)"><path fill="#c9a14c" d="M 189.101562 192.550781 L 255.125 258.824219 L 343.753906 231.828125 L 277.730469 165.554688 Z M 189.101562 192.550781 " fill-opacity="1" fill-rule="nonzero"/></g><g clip-path="url(#272cb3edd8)"><path fill="#7fc94c" d="M 109.066406 112.210938 L 174.9375 178.335938 L 263.566406 151.339844 L 197.695312 85.214844 Z M 109.066406 112.210938 " fill-opacity="1" fill-rule="nonzero"/></g><g clip-path="url(#22044eff46)"><path fill="#f9f792" d="M 174.933594 178.332031 L 189.082031 192.53125 L 277.710938 165.535156 L 263.5625 151.335938 Z M 174.933594 178.332031 " fill-opacity="1" fill-rule="nonzero"/></g><path fill="#000000" d="M -19.28125 97.398438 L 46.414062 163.496094 L 60.734375 177.808594 L 126.429688 243.910156 L 173.179688 249.382812 L 211.082031 253.59375 L 256.988281 258.644531 L 190.871094 192.546875 L 176.972656 178.230469 L 110.855469 112.132812 Z M -19.28125 97.398438 " fill-opacity="0.152" fill-rule="nonzero"/><g clip-path="url(#206a256bdf)"><g clip-path="url(#18cd26ffc0)"><path fill="url(#80e8263ab1)" d="M 82.003906 0.964844 L 82.003906 181.730469 L 193.398438 181.730469 L 193.398438 0.964844 Z M 82.003906 0.964844 " fill-rule="nonzero"/></g></g><g clip-path="url(#c4f971b5fe)"><path stroke-linecap="square" transform="matrix(0.386007, 0, 0, 0.385892, -474.934128, -565.528784)" fill="none" stroke-linejoin="round" d="M 1731.398576 1612.297861 C 1731.398576 1691.983309 1587.112946 1878.816936 1587.112946 1936.445144 C 1587.112946 1878.857427 1442.817197 1691.993432 1442.817197 1612.297861 C 1442.817197 1532.612414 1507.420891 1468.009704 1587.112946 1468.009704 C 1666.805002 1468.009704 1731.398576 1532.612414 1731.398576 1612.297861 Z M 1731.398576 1612.297861 " stroke="#a00000" stroke-width="4.79" stroke-opacity="1" stroke-miterlimit="4"/></g><path fill="#a00000" d="M 156.855469 55.5 C 156.855469 56.128906 156.828125 56.753906 156.765625 57.378906 C 156.703125 58.003906 156.613281 58.621094 156.488281 59.238281 C 156.367188 59.851562 156.214844 60.460938 156.03125 61.058594 C 155.851562 61.660156 155.640625 62.25 155.398438 62.828125 C 155.160156 63.40625 154.890625 63.972656 154.597656 64.527344 C 154.300781 65.078125 153.976562 65.617188 153.628906 66.136719 C 153.28125 66.660156 152.90625 67.164062 152.511719 67.648438 C 152.113281 68.132812 151.691406 68.597656 151.246094 69.039062 C 150.804688 69.484375 150.339844 69.902344 149.855469 70.300781 C 149.371094 70.699219 148.867188 71.074219 148.34375 71.421875 C 147.824219 71.769531 147.285156 72.089844 146.734375 72.386719 C 146.179688 72.683594 145.613281 72.949219 145.035156 73.191406 C 144.457031 73.429688 143.867188 73.640625 143.265625 73.824219 C 142.664062 74.003906 142.058594 74.15625 141.441406 74.28125 C 140.828125 74.402344 140.207031 74.492188 139.582031 74.554688 C 138.957031 74.617188 138.332031 74.648438 137.707031 74.648438 C 137.078125 74.648438 136.453125 74.617188 135.828125 74.554688 C 135.203125 74.492188 134.585938 74.402344 133.96875 74.28125 C 133.355469 74.15625 132.746094 74.003906 132.144531 73.824219 C 131.546875 73.640625 130.957031 73.429688 130.375 73.191406 C 129.796875 72.949219 129.230469 72.683594 128.675781 72.386719 C 128.125 72.089844 127.585938 71.769531 127.066406 71.421875 C 126.542969 71.074219 126.039062 70.699219 125.554688 70.300781 C 125.070312 69.902344 124.605469 69.484375 124.164062 69.039062 C 123.71875 68.597656 123.300781 68.132812 122.902344 67.648438 C 122.503906 67.164062 122.128906 66.660156 121.78125 66.136719 C 121.433594 65.617188 121.109375 65.078125 120.816406 64.527344 C 120.519531 63.972656 120.253906 63.40625 120.011719 62.828125 C 119.773438 62.25 119.5625 61.660156 119.378906 61.058594 C 119.195312 60.460938 119.042969 59.851562 118.921875 59.238281 C 118.800781 58.621094 118.707031 58.003906 118.648438 57.378906 C 118.585938 56.753906 118.554688 56.128906 118.554688 55.5 C 118.554688 54.875 118.585938 54.25 118.648438 53.625 C 118.707031 53 118.800781 52.382812 118.921875 51.765625 C 119.042969 51.152344 119.195312 50.542969 119.378906 49.945312 C 119.5625 49.34375 119.773438 48.753906 120.011719 48.175781 C 120.253906 47.59375 120.519531 47.03125 120.816406 46.476562 C 121.109375 45.921875 121.433594 45.386719 121.78125 44.863281 C 122.128906 44.34375 122.503906 43.839844 122.902344 43.355469 C 123.300781 42.871094 123.71875 42.40625 124.164062 41.964844 C 124.605469 41.519531 125.070312 41.101562 125.554688 40.703125 C 126.039062 40.304688 126.542969 39.929688 127.066406 39.582031 C 127.585938 39.234375 128.125 38.914062 128.675781 38.617188 C 129.230469 38.320312 129.796875 38.054688 130.375 37.8125 C 130.957031 37.574219 131.546875 37.363281 132.144531 37.179688 C 132.746094 37 133.355469 36.847656 133.96875 36.722656 C 134.585938 36.601562 135.203125 36.507812 135.828125 36.449219 C 136.453125 36.386719 137.078125 36.355469 137.707031 36.355469 C 138.332031 36.355469 138.957031 36.386719 139.582031 36.449219 C 140.207031 36.507812 140.828125 36.601562 141.441406 36.722656 C 142.058594 36.847656 142.664062 37 143.265625 37.179688 C 143.863281 37.363281 144.457031 37.574219 145.035156 37.8125 C 145.613281 38.054688 146.179688 38.320312 146.734375 38.617188 C 147.285156 38.914062 147.824219 39.234375 148.34375 39.582031 C 148.867188 39.929688 149.371094 40.304688 149.855469 40.703125 C 150.339844 41.101562 150.804688 41.519531 151.246094 41.964844 C 151.691406 42.40625 152.113281 42.871094 152.511719 43.355469 C 152.90625 43.839844 153.28125 44.34375 153.628906 44.863281 C 153.976562 45.386719 154.300781 45.921875 154.59375 46.476562 C 154.890625 47.03125 155.160156 47.59375 155.398438 48.175781 C 155.640625 48.753906 155.851562 49.34375 156.03125 49.945312 C 156.214844 50.542969 156.367188 51.152344 156.488281 51.765625 C 156.613281 52.382812 156.703125 53 156.765625 53.625 C 156.828125 54.25 156.855469 54.875 156.855469 55.5 Z M 156.855469 55.5 " fill-opacity="1" fill-rule="nonzero"/></svg>