<svg xmlns="http://www.w3.org/2000/svg" xmlns:xlink="http://www.w3.org/1999/xlink" width="350" zoomAndPan="magnify" viewBox="0 0 262.5 262.500001" height="350" preserveAspectRatio="xMidYMid meet" version="1.0"><defs><clipPath id="36b82858dc"><path d="M 80.867188 19.21875 L 181.164062 19.21875 L 181.164062 119.800781 L 80.867188 119.800781 Z M 80.867188 19.21875 " clip-rule="nonzero"/></clipPath><clipPath id="800ba1a4a7"><path d="M 100.285156 23.230469 L 181.164062 23.230469 L 181.164062 119.800781 L 100.285156 119.800781 Z M 100.285156 23.230469 " clip-rule="nonzero"/></clipPath></defs><path fill="#4d4d4d" d="M 139.367188 226.058594 L 135.085938 233.152344 C 133.441406 235.875 129.5 235.875 127.859375 233.152344 L 123.578125 226.058594 L 123.578125 113.3125 L 139.367188 113.3125 L 139.367188 226.058594 " fill-opacity="1" fill-rule="nonzero"/><path fill="#808080" d="M 127.859375 233.152344 C 128.488281 234.199219 129.460938 234.832031 130.507812 235.074219 L 130.507812 113.3125 L 126.15625 113.3125 L 126.15625 230.332031 L 127.859375 233.152344 " fill-opacity="1" fill-rule="nonzero"/><path fill="#1a1a1a" d="M 135.40625 113.3125 L 135.40625 232.621094 L 139.367188 226.058594 L 139.367188 113.3125 L 135.40625 113.3125 " fill-opacity="1" fill-rule="nonzero"/><g clip-path="url(#36b82858dc)"><path fill="#f12200" d="M 181.160156 69.410156 C 181.160156 97.128906 158.707031 119.601562 131.011719 119.601562 C 103.320312 119.601562 80.867188 97.128906 80.867188 69.410156 C 80.867188 41.691406 103.320312 19.21875 131.011719 19.21875 C 158.707031 19.21875 181.160156 41.691406 181.160156 69.410156 " fill-opacity="1" fill-rule="nonzero"/></g><g clip-path="url(#800ba1a4a7)"><path fill="#9e1600" d="M 151 23.390625 C 162.894531 32.566406 170.585938 46.925781 170.585938 63.117188 C 170.585938 90.839844 148.132812 113.3125 120.4375 113.3125 C 113.328125 113.3125 106.578125 111.8125 100.453125 109.140625 C 108.917969 115.675781 119.496094 119.601562 131.015625 119.601562 C 158.707031 119.601562 181.160156 97.128906 181.160156 69.410156 C 181.160156 48.804688 168.742188 31.121094 151 23.390625 " fill-opacity="1" fill-rule="nonzero"/></g><path fill="#ffd6cf" d="M 134.058594 52.320312 C 134.058594 62.910156 125.480469 71.496094 114.902344 71.496094 C 104.320312 71.496094 95.742188 62.910156 95.742188 52.320312 C 95.742188 41.730469 104.320312 33.144531 114.902344 33.144531 C 125.480469 33.144531 134.058594 41.730469 134.058594 52.320312 " fill-opacity="1" fill-rule="nonzero"/></svg>