<svg xmlns="http://www.w3.org/2000/svg" xmlns:xlink="http://www.w3.org/1999/xlink" width="350" zoomAndPan="magnify" viewBox="0 0 262.5 262.500001" height="350" preserveAspectRatio="xMidYMid meet" version="1.0"><defs><clipPath id="50d3127aa9"><path d="M 157.179688 169.660156 L 174.378906 169.660156 L 174.378906 186.632812 L 157.179688 186.632812 Z M 157.179688 169.660156 " clip-rule="nonzero"/></clipPath><clipPath id="781ff0db8c"><path d="M 49 49.640625 L 93 49.640625 L 93 100 L 49 100 Z M 49 49.640625 " clip-rule="nonzero"/></clipPath><clipPath id="6cdd5d214c"><path d="M 37.492188 61 L 87 61 L 87 105 L 37.492188 105 Z M 37.492188 61 " clip-rule="nonzero"/></clipPath><clipPath id="1d4986ae36"><path d="M 39 139 L 48 139 L 48 145 L 39 145 Z M 39 139 " clip-rule="nonzero"/></clipPath><clipPath id="d0efa256b8"><path d="M 13.214844 168.628906 L 10.464844 96.070312 L 80.78125 93.402344 L 83.53125 165.960938 Z M 13.214844 168.628906 " clip-rule="nonzero"/></clipPath><clipPath id="4e286bd0d9"><path d="M 13.214844 168.628906 L 10.464844 96.070312 L 80.78125 93.402344 L 83.53125 165.960938 Z M 13.214844 168.628906 " clip-rule="nonzero"/></clipPath><clipPath id="6874296915"><path d="M 23 106 L 35 106 L 35 118 L 23 118 Z M 23 106 " clip-rule="nonzero"/></clipPath><clipPath id="15eab52cdb"><path d="M 13.214844 168.628906 L 10.464844 96.070312 L 80.78125 93.402344 L 83.53125 165.960938 Z M 13.214844 168.628906 " clip-rule="nonzero"/></clipPath><clipPath id="cdcb955eb4"><path d="M 13.214844 168.628906 L 10.464844 96.070312 L 80.78125 93.402344 L 83.53125 165.960938 Z M 13.214844 168.628906 " clip-rule="nonzero"/></clipPath><clipPath id="4d56909f14"><path d="M 11 114 L 31 114 L 31 128 L 11 128 Z M 11 114 " clip-rule="nonzero"/></clipPath><clipPath id="5f67202883"><path d="M 13.214844 168.628906 L 10.464844 96.070312 L 80.78125 93.402344 L 83.53125 165.960938 Z M 13.214844 168.628906 " clip-rule="nonzero"/></clipPath><clipPath id="c2dc005b23"><path d="M 13.214844 168.628906 L 10.464844 96.070312 L 80.78125 93.402344 L 83.53125 165.960938 Z M 13.214844 168.628906 " clip-rule="nonzero"/></clipPath><clipPath id="0b27183ef8"><path d="M 63 146 L 84 146 L 84 166 L 63 166 Z M 63 146 " clip-rule="nonzero"/></clipPath><clipPath id="cd186b0ef5"><path d="M 13.214844 168.628906 L 10.464844 96.070312 L 80.78125 93.402344 L 83.53125 165.960938 Z M 13.214844 168.628906 " clip-rule="nonzero"/></clipPath><clipPath id="ebbbcc30aa"><path d="M 13.214844 168.628906 L 10.464844 96.070312 L 80.78125 93.402344 L 83.53125 165.960938 Z M 13.214844 168.628906 " clip-rule="nonzero"/></clipPath><clipPath id="3c1c16944d"><path d="M 56 123 L 61 123 L 61 131 L 56 131 Z M 56 123 " clip-rule="nonzero"/></clipPath><clipPath id="232dc145be"><path d="M 13.214844 168.628906 L 10.464844 96.070312 L 80.78125 93.402344 L 83.53125 165.960938 Z M 13.214844 168.628906 " clip-rule="nonzero"/></clipPath><clipPath id="ace6183dd8"><path d="M 13.214844 168.628906 L 10.464844 96.070312 L 80.78125 93.402344 L 83.53125 165.960938 Z M 13.214844 168.628906 " clip-rule="nonzero"/></clipPath><clipPath id="5b626083a1"><path d="M 30 95 L 44 95 L 44 114 L 30 114 Z M 30 95 " clip-rule="nonzero"/></clipPath><clipPath id="46af427974"><path d="M 13.214844 168.628906 L 10.464844 96.070312 L 80.78125 93.402344 L 83.53125 165.960938 Z M 13.214844 168.628906 " clip-rule="nonzero"/></clipPath><clipPath id="e531ee5826"><path d="M 13.214844 168.628906 L 10.464844 96.070312 L 80.78125 93.402344 L 83.53125 165.960938 Z M 13.214844 168.628906 " clip-rule="nonzero"/></clipPath><clipPath id="6eaaec79d8"><path d="M 61 143 L 74 143 L 74 157 L 61 157 Z M 61 143 " clip-rule="nonzero"/></clipPath><clipPath id="5055bb0dc4"><path d="M 13.214844 168.628906 L 10.464844 96.070312 L 80.78125 93.402344 L 83.53125 165.960938 Z M 13.214844 168.628906 " clip-rule="nonzero"/></clipPath><clipPath id="c439f4ac83"><path d="M 13.214844 168.628906 L 10.464844 96.070312 L 80.78125 93.402344 L 83.53125 165.960938 Z M 13.214844 168.628906 " clip-rule="nonzero"/></clipPath><clipPath id="aae61291f3"><path d="M 19 102 L 71 102 L 71 154 L 19 154 Z M 19 102 " clip-rule="nonzero"/></clipPath><clipPath id="ff3ca5164a"><path d="M 13.214844 168.628906 L 10.464844 96.070312 L 80.78125 93.402344 L 83.53125 165.960938 Z M 13.214844 168.628906 " clip-rule="nonzero"/></clipPath><clipPath id="2712aec9ee"><path d="M 13.214844 168.628906 L 10.464844 96.070312 L 80.78125 93.402344 L 83.53125 165.960938 Z M 13.214844 168.628906 " clip-rule="nonzero"/></clipPath><clipPath id="674a171c2a"><path d="M 80 52 L 89 52 L 89 58 L 80 58 Z M 80 52 " clip-rule="nonzero"/></clipPath><clipPath id="dc879495d0"><path d="M 47.589844 83.628906 L 50.105469 -0.175781 L 130.917969 2.253906 L 128.398438 86.054688 Z M 47.589844 83.628906 " clip-rule="nonzero"/></clipPath><clipPath id="d0df299f37"><path d="M 47.589844 83.628906 L 50.105469 -0.175781 L 130.917969 2.253906 L 128.398438 86.054688 Z M 47.589844 83.628906 " clip-rule="nonzero"/></clipPath><clipPath id="8f5485bb58"><path d="M 63 13 L 76 13 L 76 27 L 63 27 Z M 63 13 " clip-rule="nonzero"/></clipPath><clipPath id="359fc13771"><path d="M 47.589844 83.628906 L 50.105469 -0.175781 L 130.917969 2.253906 L 128.398438 86.054688 Z M 47.589844 83.628906 " clip-rule="nonzero"/></clipPath><clipPath id="80d666bd00"><path d="M 47.589844 83.628906 L 50.105469 -0.175781 L 130.917969 2.253906 L 128.398438 86.054688 Z M 47.589844 83.628906 " clip-rule="nonzero"/></clipPath><clipPath id="5e10ddcb35"><path d="M 49 21 L 71 21 L 71 38 L 49 38 Z M 49 21 " clip-rule="nonzero"/></clipPath><clipPath id="0ee57fcf91"><path d="M 47.589844 83.628906 L 50.105469 -0.175781 L 130.917969 2.253906 L 128.398438 86.054688 Z M 47.589844 83.628906 " clip-rule="nonzero"/></clipPath><clipPath id="48aa2f2ed2"><path d="M 47.589844 83.628906 L 50.105469 -0.175781 L 130.917969 2.253906 L 128.398438 86.054688 Z M 47.589844 83.628906 " clip-rule="nonzero"/></clipPath><clipPath id="3171d446ac"><path d="M 106 62 L 129 62 L 129 86 L 106 86 Z M 106 62 " clip-rule="nonzero"/></clipPath><clipPath id="9f1bfc401f"><path d="M 47.589844 83.628906 L 50.105469 -0.175781 L 130.917969 2.253906 L 128.398438 86.054688 Z M 47.589844 83.628906 " clip-rule="nonzero"/></clipPath><clipPath id="13dfb9f6a6"><path d="M 47.589844 83.628906 L 50.105469 -0.175781 L 130.917969 2.253906 L 128.398438 86.054688 Z M 47.589844 83.628906 " clip-rule="nonzero"/></clipPath><clipPath id="011b62f20f"><path d="M 100 34 L 106 34 L 106 44 L 100 44 Z M 100 34 " clip-rule="nonzero"/></clipPath><clipPath id="4ff2c6ae6c"><path d="M 47.589844 83.628906 L 50.105469 -0.175781 L 130.917969 2.253906 L 128.398438 86.054688 Z M 47.589844 83.628906 " clip-rule="nonzero"/></clipPath><clipPath id="e23179dd58"><path d="M 47.589844 83.628906 L 50.105469 -0.175781 L 130.917969 2.253906 L 128.398438 86.054688 Z M 47.589844 83.628906 " clip-rule="nonzero"/></clipPath><clipPath id="d22072f515"><path d="M 72 1 L 88 1 L 88 23 L 72 23 Z M 72 1 " clip-rule="nonzero"/></clipPath><clipPath id="6125601d0e"><path d="M 47.589844 83.628906 L 50.105469 -0.175781 L 130.917969 2.253906 L 128.398438 86.054688 Z M 47.589844 83.628906 " clip-rule="nonzero"/></clipPath><clipPath id="234470516f"><path d="M 47.589844 83.628906 L 50.105469 -0.175781 L 130.917969 2.253906 L 128.398438 86.054688 Z M 47.589844 83.628906 " clip-rule="nonzero"/></clipPath><clipPath id="838c76f0b8"><path d="M 103 59 L 119 59 L 119 74 L 103 74 Z M 103 59 " clip-rule="nonzero"/></clipPath><clipPath id="4f7235b70b"><path d="M 47.589844 83.628906 L 50.105469 -0.175781 L 130.917969 2.253906 L 128.398438 86.054688 Z M 47.589844 83.628906 " clip-rule="nonzero"/></clipPath><clipPath id="d42ea760d0"><path d="M 47.589844 83.628906 L 50.105469 -0.175781 L 130.917969 2.253906 L 128.398438 86.054688 Z M 47.589844 83.628906 " clip-rule="nonzero"/></clipPath><clipPath id="4aa3a0da2e"><path d="M 58 9 L 116 9 L 116 71 L 58 71 Z M 58 9 " clip-rule="nonzero"/></clipPath><clipPath id="67e0c4ccd6"><path d="M 47.589844 83.628906 L 50.105469 -0.175781 L 130.917969 2.253906 L 128.398438 86.054688 Z M 47.589844 83.628906 " clip-rule="nonzero"/></clipPath><clipPath id="3f0bc0d476"><path d="M 47.589844 83.628906 L 50.105469 -0.175781 L 130.917969 2.253906 L 128.398438 86.054688 Z M 47.589844 83.628906 " clip-rule="nonzero"/></clipPath></defs><g clip-path="url(#50d3127aa9)"><path fill="#9e1600" d="M 164 169.882812 C 162.503906 170.386719 161.101562 171.230469 159.910156 172.421875 C 158.71875 173.613281 157.875 175.019531 157.371094 176.511719 C 166.710938 182.6875 174.378906 186.890625 174.378906 186.890625 C 174.378906 186.890625 170.175781 179.222656 164 169.882812 " fill-opacity="1" fill-rule="nonzero"/></g><path fill="#9e1600" d="M 162.351562 167.417969 C 157.453125 160.191406 151.542969 152.308594 145.582031 146.347656 C 142.292969 143.058594 139.4375 140.472656 136.945312 138.472656 C 134.253906 136.3125 131.589844 134.125 128.945312 131.910156 L 131.175781 129.675781 L 128.1875 121.609375 L 122.96875 126.828125 C 115.253906 120.160156 107.753906 113.253906 100.496094 106.089844 L 104.273438 102.3125 L 102.296875 95.089844 L 82.578125 114.808594 L 89.800781 116.785156 L 93.578125 113.007812 C 100.742188 120.265625 107.648438 127.765625 114.316406 135.480469 L 109.097656 140.699219 L 117.164062 143.6875 L 119.398438 141.457031 C 121.613281 144.101562 123.800781 146.769531 125.960938 149.457031 C 127.960938 151.945312 130.546875 154.804688 133.835938 158.09375 C 139.796875 164.054688 147.679688 169.964844 154.90625 174.863281 C 155.5625 173.230469 156.550781 171.703125 157.871094 170.382812 C 159.191406 169.0625 160.71875 168.074219 162.351562 167.417969 " fill-opacity="1" fill-rule="nonzero"/><path fill="#9e1600" d="M 77.644531 112.144531 C 77.71875 112.21875 77.792969 112.289062 77.871094 112.355469 L 84.175781 106.050781 L 42.828125 72.621094 C 42.292969 75.417969 43.109375 78.421875 45.277344 80.585938 C 45.734375 81.046875 46.230469 81.441406 46.753906 81.78125 C 45.183594 86.136719 46.144531 91.199219 49.636719 94.691406 C 52.742188 97.796875 57.09375 98.902344 61.085938 98.003906 C 61.382812 99.46875 62.101562 100.863281 63.234375 101.996094 C 65.746094 104.511719 69.53125 104.972656 72.511719 103.390625 C 73.011719 104.804688 73.824219 106.128906 74.953125 107.257812 C 75.355469 107.660156 75.78125 108.019531 76.230469 108.34375 C 76.128906 109.707031 76.601562 111.101562 77.644531 112.144531 " fill-opacity="1" fill-rule="nonzero"/><path fill="#9e1600" d="M 99.742188 90.484375 C 99.679688 90.417969 99.617188 90.351562 99.554688 90.285156 C 99.03125 89.765625 98.445312 89.351562 97.824219 89.039062 C 97.855469 87.234375 97.183594 85.414062 95.804688 84.039062 C 95.269531 83.5 94.667969 83.074219 94.023438 82.75 C 95.480469 80.175781 95.113281 76.851562 92.921875 74.660156 C 92.113281 73.851562 91.148438 73.289062 90.121094 72.976562 C 89.714844 71.851562 89.058594 70.792969 88.152344 69.890625 C 86.875 68.613281 85.289062 67.828125 83.632812 67.539062 C 85.363281 64.769531 85.023438 61.078125 82.613281 58.671875 C 80.089844 56.144531 76.148438 55.894531 73.34375 57.925781 C 73.324219 57.902344 73.300781 57.878906 73.28125 57.859375 C 69.597656 54.175781 64.265625 53.152344 59.664062 54.789062 L 93.539062 96.6875 L 99.742188 90.484375 " fill-opacity="1" fill-rule="nonzero"/><path fill="#9e1600" d="M 89.714844 100.511719 L 48.851562 53.460938 C 47.246094 55.570312 46.28125 58.011719 45.957031 60.523438 C 45.136719 60.566406 44.324219 60.707031 43.53125 60.949219 L 87.921875 102.304688 L 89.714844 100.511719 " fill-opacity="1" fill-rule="nonzero"/><g clip-path="url(#781ff0db8c)"><path fill="#9e1600" d="M 92.234375 97.992188 L 53.140625 49.640625 C 52.082031 50.265625 51.085938 51.03125 50.179688 51.941406 C 50.113281 52.003906 50.050781 52.070312 49.988281 52.132812 L 90.941406 99.285156 L 92.234375 97.992188 " fill-opacity="1" fill-rule="nonzero"/></g><g clip-path="url(#6cdd5d214c)"><path fill="#9e1600" d="M 86.699219 103.527344 L 41.773438 61.671875 C 40.898438 62.132812 40.078125 62.734375 39.34375 63.46875 C 38.585938 64.222656 37.976562 65.070312 37.511719 65.96875 L 85.476562 104.75 L 86.699219 103.527344 " fill-opacity="1" fill-rule="nonzero"/></g><g clip-path="url(#1d4986ae36)"><g clip-path="url(#d0efa256b8)"><g clip-path="url(#4e286bd0d9)"><path fill="#f7f7f7" d="M 43.90625 139.53125 L 39.980469 143.542969 C 42.433594 144.519531 44.863281 144.304688 47.359375 142.910156 Z M 43.90625 139.53125 " fill-opacity="1" fill-rule="nonzero"/></g></g></g><g clip-path="url(#6874296915)"><g clip-path="url(#15eab52cdb)"><g clip-path="url(#cdcb955eb4)"><path fill="#f7f7f7" d="M 25.96875 106.910156 L 23.164062 109.773438 L 34.089844 117.667969 Z M 25.96875 106.910156 " fill-opacity="1" fill-rule="nonzero"/></g></g></g><g clip-path="url(#4d56909f14)"><g clip-path="url(#5f67202883)"><g clip-path="url(#c2dc005b23)"><path fill="#f7f7f7" d="M 18.433594 114.585938 L 12.074219 121.082031 C 11.679688 121.484375 11.496094 122.035156 11.570312 122.59375 C 11.640625 123.144531 11.953125 123.617188 12.421875 123.894531 C 18.609375 127.558594 24.425781 128.273438 30.171875 126.078125 Z M 18.433594 114.585938 " fill-opacity="1" fill-rule="nonzero"/></g></g></g><g clip-path="url(#0b27183ef8)"><g clip-path="url(#cd186b0ef5)"><g clip-path="url(#ebbbcc30aa)"><path fill="#f7f7f7" d="M 63.496094 157.027344 C 68.882812 162.085938 75.371094 165.164062 82.320312 165.9375 C 82.605469 165.96875 82.890625 165.867188 83.09375 165.65625 C 83.300781 165.445312 83.398438 165.160156 83.359375 164.875 C 82.441406 157.945312 79.226562 151.523438 74.054688 146.242188 C 71.554688 150.824219 68.007812 154.445312 63.496094 157.027344 Z M 63.496094 157.027344 " fill-opacity="1" fill-rule="nonzero"/></g></g></g><g clip-path="url(#3c1c16944d)"><g clip-path="url(#232dc145be)"><g clip-path="url(#ace6183dd8)"><path fill="#f7f7f7" d="M 59.605469 130.40625 C 60.945312 127.882812 61.113281 125.449219 60.082031 123.011719 L 56.152344 127.027344 Z M 59.605469 130.40625 " fill-opacity="1" fill-rule="nonzero"/></g></g></g><g clip-path="url(#5b626083a1)"><g clip-path="url(#46af427974)"><g clip-path="url(#e531ee5826)"><path fill="#f7f7f7" d="M 37.042969 95.585938 L 30.679688 102.082031 L 42.417969 113.574219 C 44.492188 107.78125 43.65625 101.980469 39.863281 95.875 C 39.574219 95.410156 39.09375 95.109375 38.546875 95.046875 C 37.984375 94.988281 37.4375 95.183594 37.042969 95.585938 Z M 37.042969 95.585938 " fill-opacity="1" fill-rule="nonzero"/></g></g></g><g clip-path="url(#6eaaec79d8)"><g clip-path="url(#5055bb0dc4)"><g clip-path="url(#c439f4ac83)"><path fill="#f7f7f7" d="M 61.167969 154.765625 L 62.601562 156.171875 C 67.167969 153.636719 70.726562 150.003906 73.183594 145.367188 L 71.746094 143.960938 C 69.242188 148.554688 65.691406 152.179688 61.167969 154.765625 Z M 61.167969 154.765625 " fill-opacity="1" fill-rule="nonzero"/></g></g></g><g clip-path="url(#aae61291f3)"><g clip-path="url(#ff3ca5164a)"><g clip-path="url(#2712aec9ee)"><path fill="#f7f7f7" d="M 54.894531 127.460938 C 54.894531 127.457031 54.894531 127.457031 54.894531 127.460938 L 29.859375 102.9375 L 26.808594 106.050781 L 37.421875 120.109375 C 37.5 120.210938 37.539062 120.324219 37.542969 120.445312 C 37.546875 120.601562 37.492188 120.761719 37.371094 120.882812 C 37.167969 121.09375 36.839844 121.121094 36.597656 120.949219 L 22.324219 110.632812 L 19.273438 113.742188 L 31.652344 125.863281 C 31.652344 125.863281 31.652344 125.867188 31.652344 125.867188 L 44.3125 138.265625 C 44.316406 138.265625 44.3125 138.265625 44.3125 138.265625 L 60.285156 153.90625 C 64.855469 151.367188 68.410156 147.734375 70.867188 143.097656 Z M 54.894531 127.460938 " fill-opacity="1" fill-rule="nonzero"/></g></g></g><g clip-path="url(#674a171c2a)"><g clip-path="url(#dc879495d0)"><g clip-path="url(#d0df299f37)"><path fill="#f7f7f7" d="M 85.128906 52.59375 L 80.300781 56.894531 C 83.046875 58.210938 85.851562 58.152344 88.828125 56.746094 Z M 85.128906 52.59375 " fill-opacity="1" fill-rule="nonzero"/></g></g></g><g clip-path="url(#8f5485bb58)"><g clip-path="url(#359fc13771)"><g clip-path="url(#80d666bd00)"><path fill="#f7f7f7" d="M 67.066406 13.710938 L 63.621094 16.777344 L 75.554688 26.703125 Z M 67.066406 13.710938 " fill-opacity="1" fill-rule="nonzero"/></g></g></g><g clip-path="url(#5e10ddcb35)"><g clip-path="url(#0ee57fcf91)"><g clip-path="url(#48aa2f2ed2)"><path fill="#f7f7f7" d="M 57.808594 21.9375 L 49.992188 28.90625 C 49.507812 29.335938 49.253906 29.957031 49.296875 30.605469 C 49.335938 31.242188 49.65625 31.808594 50.175781 32.167969 C 56.996094 36.859375 63.625 38.136719 70.398438 36.0625 Z M 57.808594 21.9375 " fill-opacity="1" fill-rule="nonzero"/></g></g></g><g clip-path="url(#3171d446ac)"><g clip-path="url(#9f1bfc401f)"><g clip-path="url(#13dfb9f6a6)"><path fill="#f7f7f7" d="M 106.269531 74.230469 C 112.058594 80.460938 119.277344 84.507812 127.199219 85.9375 C 127.527344 85.996094 127.859375 85.902344 128.113281 85.675781 C 128.363281 85.449219 128.5 85.128906 128.476562 84.800781 C 127.964844 76.765625 124.769531 69.132812 119.246094 62.664062 C 116.011719 67.730469 111.65625 71.613281 106.269531 74.230469 Z M 106.269531 74.230469 " fill-opacity="1" fill-rule="nonzero"/></g></g></g><g clip-path="url(#011b62f20f)"><g clip-path="url(#4ff2c6ae6c)"><g clip-path="url(#e23179dd58)"><path fill="#f7f7f7" d="M 103.878906 43.335938 C 105.617188 40.539062 105.996094 37.757812 105.003906 34.878906 L 100.175781 39.183594 Z M 103.878906 43.335938 " fill-opacity="1" fill-rule="nonzero"/></g></g></g><g clip-path="url(#d22072f515)"><g clip-path="url(#6125601d0e)"><g clip-path="url(#234470516f)"><path fill="#f7f7f7" d="M 80.675781 1.5625 L 72.859375 8.527344 L 85.445312 22.652344 C 88.28125 16.160156 87.773438 9.429688 83.894531 2.113281 C 83.597656 1.558594 83.070312 1.175781 82.445312 1.0625 C 81.804688 0.949219 81.160156 1.132812 80.675781 1.5625 Z M 80.675781 1.5625 " fill-opacity="1" fill-rule="nonzero"/></g></g></g><g clip-path="url(#838c76f0b8)"><g clip-path="url(#4f7235b70b)"><g clip-path="url(#d42ea760d0)"><path fill="#f7f7f7" d="M 103.769531 71.449219 L 105.308594 73.175781 C 110.753906 70.617188 115.125 66.722656 118.308594 61.589844 L 116.769531 59.859375 C 113.535156 64.941406 109.167969 68.832031 103.769531 71.449219 Z M 103.769531 71.449219 " fill-opacity="1" fill-rule="nonzero"/></g></g></g><g clip-path="url(#4aa3a0da2e)"><g clip-path="url(#67e0c4ccd6)"><g clip-path="url(#3f0bc0d476)"><path fill="#f7f7f7" d="M 98.699219 39.582031 L 71.84375 9.449219 L 68.097656 12.789062 L 79.195312 29.769531 C 79.273438 29.890625 79.308594 30.027344 79.304688 30.164062 C 79.300781 30.347656 79.222656 30.527344 79.078125 30.65625 C 78.824219 30.882812 78.445312 30.886719 78.183594 30.671875 L 62.585938 17.699219 L 58.839844 21.039062 L 72.113281 35.929688 C 72.113281 35.933594 72.117188 35.933594 72.117188 35.933594 L 85.695312 51.167969 C 85.695312 51.167969 85.695312 51.167969 85.695312 51.171875 L 102.824219 70.390625 C 108.269531 67.832031 112.640625 63.933594 115.824219 58.800781 Z M 98.699219 39.582031 " fill-opacity="1" fill-rule="nonzero"/></g></g></g></svg>