<svg xmlns="http://www.w3.org/2000/svg" xmlns:xlink="http://www.w3.org/1999/xlink" width="350" zoomAndPan="magnify" viewBox="0 0 262.5 262.500001" height="350" preserveAspectRatio="xMidYMid meet" version="1.0"><defs><clipPath id="3b2f8318e3"><path d="M 92 85 L 171 85 L 171 212.914062 L 92 212.914062 Z M 92 85 " clip-rule="nonzero"/></clipPath><clipPath id="9010fc5efd"><path d="M 174.550781 51.011719 L 198.28125 51.011719 L 198.28125 145.96875 L 174.550781 145.96875 Z M 174.550781 51.011719 " clip-rule="nonzero"/></clipPath></defs><g clip-path="url(#3b2f8318e3)"><path fill="#f12200" d="M 141.605469 185.449219 L 154.992188 179.753906 L 160.3125 196.261719 Z M 102.191406 196.46875 L 109.710938 173.136719 L 129.765625 184.730469 Z M 131.285156 109.582031 C 131.644531 109.582031 132.003906 109.5625 132.355469 109.53125 L 138.101562 127.351562 L 121.589844 136.28125 L 130.210938 109.53125 C 130.566406 109.5625 130.921875 109.582031 131.285156 109.582031 Z M 121.667969 142.265625 L 139.753906 132.480469 L 151.179688 167.933594 Z M 118.332031 146.386719 L 151.6875 175.398438 L 135.867188 182.132812 L 111.375 167.980469 Z M 143.835938 127.871094 C 143.835938 127.867188 143.835938 127.867188 143.832031 127.867188 L 137.398438 107.90625 C 140.929688 105.816406 143.296875 101.96875 143.296875 97.566406 C 143.296875 90.933594 137.917969 85.554688 131.285156 85.554688 C 124.648438 85.554688 119.269531 90.933594 119.269531 97.566406 C 119.269531 101.96875 121.636719 105.816406 125.167969 107.90625 L 105.683594 168.355469 C 105.679688 168.367188 105.675781 168.378906 105.671875 168.390625 L 92.546875 209.105469 C 92.097656 210.5 92.863281 211.992188 94.257812 212.441406 C 95.648438 212.890625 97.144531 212.125 97.59375 210.730469 L 100.039062 203.140625 L 135.503906 188.046875 L 162.734375 203.785156 L 164.976562 210.730469 C 165.339844 211.855469 166.378906 212.570312 167.496094 212.570312 C 167.765625 212.570312 168.039062 212.527344 168.3125 212.441406 C 169.703125 211.992188 170.46875 210.5 170.019531 209.105469 L 143.835938 127.871094 " fill-opacity="1" fill-rule="nonzero"/></g><path fill="#f12200" d="M 102.332031 119.472656 C 102.847656 119.988281 103.527344 120.246094 104.203125 120.246094 C 104.882812 120.246094 105.5625 119.988281 106.078125 119.472656 C 107.113281 118.433594 107.113281 116.757812 106.078125 115.722656 C 100.96875 110.613281 98.152344 103.824219 98.152344 96.609375 C 98.152344 89.394531 100.96875 82.605469 106.078125 77.496094 C 107.113281 76.460938 107.113281 74.785156 106.078125 73.75 C 105.042969 72.714844 103.363281 72.714844 102.332031 73.75 C 96.21875 79.859375 92.855469 87.976562 92.855469 96.609375 C 92.855469 105.242188 96.21875 113.359375 102.332031 119.472656 " fill-opacity="1" fill-rule="nonzero"/><path fill="#f12200" d="M 95.785156 130.667969 C 96.820312 129.636719 96.820312 127.957031 95.785156 126.921875 C 87.683594 118.820312 83.21875 108.054688 83.21875 96.609375 C 83.21875 85.164062 87.683594 74.398438 95.785156 66.296875 C 96.820312 65.261719 96.820312 63.582031 95.785156 62.550781 C 94.75 61.511719 93.074219 61.511719 92.039062 62.550781 C 87.4375 67.148438 83.875 72.511719 81.449219 78.488281 C 79.109375 84.261719 77.921875 90.355469 77.921875 96.609375 C 77.921875 102.863281 79.109375 108.960938 81.449219 114.730469 C 83.875 120.707031 87.4375 126.070312 92.039062 130.667969 C 92.558594 131.1875 93.234375 131.445312 93.914062 131.445312 C 94.589844 131.445312 95.269531 131.1875 95.785156 130.667969 " fill-opacity="1" fill-rule="nonzero"/><path fill="#f12200" d="M 87.109375 53.886719 C 88.144531 52.851562 88.144531 51.171875 87.109375 50.136719 C 86.074219 49.101562 84.394531 49.101562 83.359375 50.136719 C 77.082031 56.414062 72.222656 63.734375 68.914062 71.886719 C 65.71875 79.757812 64.097656 88.078125 64.097656 96.609375 C 64.097656 105.140625 65.71875 113.460938 68.914062 121.332031 C 72.222656 129.484375 77.082031 136.804688 83.359375 143.082031 C 83.878906 143.597656 84.558594 143.855469 85.234375 143.855469 C 85.914062 143.855469 86.589844 143.597656 87.109375 143.082031 C 88.144531 142.046875 88.144531 140.367188 87.109375 139.332031 C 63.550781 115.777344 63.550781 77.445312 87.109375 53.886719 " fill-opacity="1" fill-rule="nonzero"/><path fill="#f12200" d="M 156.488281 121.386719 C 157.007812 121.90625 157.683594 122.164062 158.363281 122.164062 C 159.042969 122.164062 159.71875 121.90625 160.238281 121.386719 C 166.347656 115.277344 169.714844 107.15625 169.714844 98.527344 C 169.714844 89.894531 166.347656 81.777344 160.238281 75.664062 C 159.203125 74.632812 157.527344 74.632812 156.488281 75.664062 C 155.457031 76.699219 155.457031 78.378906 156.488281 79.414062 C 167.03125 89.953125 167.03125 107.101562 156.488281 117.640625 C 155.457031 118.675781 155.457031 120.351562 156.488281 121.386719 " fill-opacity="1" fill-rule="nonzero"/><path fill="#f12200" d="M 184.648438 98.527344 C 184.648438 92.273438 183.460938 86.175781 181.117188 80.40625 C 178.691406 74.429688 175.128906 69.066406 170.527344 64.464844 C 169.492188 63.429688 167.816406 63.429688 166.78125 64.464844 C 165.746094 65.5 165.746094 67.179688 166.78125 68.214844 C 183.496094 84.929688 183.496094 112.125 166.78125 128.839844 C 165.746094 129.875 165.746094 131.550781 166.78125 132.585938 C 167.296875 133.105469 167.976562 133.363281 168.65625 133.363281 C 169.332031 133.363281 170.011719 133.105469 170.527344 132.585938 C 175.128906 127.988281 178.691406 122.625 181.117188 116.648438 C 183.460938 110.875 184.648438 104.78125 184.648438 98.527344 " fill-opacity="1" fill-rule="nonzero"/><g clip-path="url(#9010fc5efd)"><path fill="#f12200" d="M 193.65625 73.800781 C 190.34375 65.648438 185.484375 58.332031 179.207031 52.054688 C 178.171875 51.019531 176.496094 51.019531 175.460938 52.054688 C 174.425781 53.089844 174.425781 54.765625 175.460938 55.804688 C 199.019531 79.359375 199.019531 117.691406 175.460938 141.25 C 174.425781 142.285156 174.425781 143.964844 175.460938 145 C 175.976562 145.515625 176.65625 145.773438 177.332031 145.773438 C 178.011719 145.773438 178.6875 145.515625 179.207031 145 C 185.484375 138.71875 190.34375 131.402344 193.65625 123.25 C 196.851562 115.375 198.472656 107.058594 198.472656 98.527344 C 198.472656 89.996094 196.851562 81.675781 193.65625 73.800781 " fill-opacity="1" fill-rule="nonzero"/></g></svg>