<svg xmlns="http://www.w3.org/2000/svg" xmlns:xlink="http://www.w3.org/1999/xlink" width="350" zoomAndPan="magnify" viewBox="0 0 262.5 262.500001" height="350" preserveAspectRatio="xMidYMid meet" version="1.0"><defs><clipPath id="34e4386d38"><path d="M 79.03125 56.757812 L 188.324219 56.757812 L 188.324219 213.210938 L 79.03125 213.210938 Z M 79.03125 56.757812 " clip-rule="nonzero"/></clipPath></defs><g clip-path="url(#34e4386d38)"><path fill="#9e1600" d="M 133.753906 56.757812 C 103.539062 56.757812 79.03125 81.265625 79.03125 111.480469 C 79.03125 152.523438 133.753906 213.105469 133.753906 213.105469 C 133.753906 213.105469 188.476562 152.523438 188.476562 111.480469 C 188.476562 81.265625 163.96875 56.757812 133.753906 56.757812 Z M 133.753906 131.023438 C 122.964844 131.023438 114.210938 122.269531 114.210938 111.480469 C 114.210938 100.691406 122.964844 91.9375 133.753906 91.9375 C 144.542969 91.9375 153.296875 100.691406 153.296875 111.480469 C 153.296875 122.269531 144.542969 131.023438 133.753906 131.023438 Z M 133.753906 131.023438 " fill-opacity="1" fill-rule="nonzero"/></g></svg>